<svg xmlns="http://www.w3.org/2000/svg" width="168" height="34" viewBox="0 0 168 34" fill="none"><g clip-path="url(#clip0_37_35)"><path d="M102.179 33.9996C100.147 33.9996 98.346 33.6208 96.7826 32.8582C95.2193 32.0956 93.9996 31.0271 93.1284 29.6525C92.2571 28.2779 91.8215 26.6994 91.8215 24.9168V18.6511C91.8215 16.7422 92.2571 15.0568 93.1284 13.5996C93.9996 12.1425 95.2193 11.0108 96.7826 10.1996C98.346 9.38849 100.147 8.98535 102.179 8.98535H106.051C109.149 8.98535 111.632 9.85964 113.505 11.6082C115.378 13.3568 116.312 15.6882 116.312 18.6025V23.7511H98.4041V24.9168C98.4041 25.9854 98.7429 26.8451 99.4205 27.4911C100.098 28.1371 101.018 28.4625 102.179 28.4625H105.955C107.082 28.4625 107.997 28.2099 108.689 27.7096C109.381 27.2094 109.73 26.5536 109.73 25.7425H116.216C116.216 27.3599 115.78 28.8025 114.909 30.0654C114.038 31.3282 112.818 32.2996 111.255 32.9796C109.691 33.6596 107.891 33.9996 105.858 33.9996H102.179ZM109.827 18.9911V18.6025C109.827 17.3396 109.488 16.3294 108.81 15.5668C108.133 14.8042 107.228 14.4254 106.1 14.4254H102.179C101.018 14.4254 100.084 14.8285 99.3721 15.6396C98.6606 16.4508 98.3073 17.5194 98.3073 18.8454V18.9911H109.827Z" fill="white"></path><path d="M136.06 34L128.51 24.2857L125.944 26.86V34H119.362V0H125.944V19.4286L135.479 9.76286H143.127L132.769 20.06L143.514 34H136.06Z" fill="white"></path><path d="M0 9.7626H6.09853V12.6769C6.81003 11.6715 7.72965 10.87 8.85739 10.2726C9.98513 9.67517 11.1177 9.37402 12.2455 9.37402H15.1495C17.7293 9.37402 19.8057 10.1852 21.3691 11.8026C22.9324 13.42 23.7165 15.5572 23.7165 18.214V33.9997H17.134V18.4569C17.134 17.4515 16.8678 16.6452 16.3354 16.0283C15.8029 15.4115 15.1156 15.1055 14.2783 15.1055H11.3742C10.2465 15.1055 9.23492 15.5183 8.34918 16.344C7.46344 17.1697 6.87295 18.248 6.58254 19.574V33.9997H0V9.7626Z" fill="white"></path><path d="M153.233 33.9996C151.2 33.9996 149.399 33.6014 147.836 32.8096C146.273 32.0179 145.063 30.8911 144.206 29.4339C143.349 27.9768 142.923 26.2914 142.923 24.3825V18.6996C142.923 16.7908 143.359 15.0956 144.23 13.6239C145.101 12.1522 146.321 11.0108 147.884 10.1996C149.448 9.38849 151.248 8.98535 153.281 8.98535H157.637C159.67 8.98535 161.471 9.38849 163.034 10.1996C164.597 11.0108 165.817 12.1522 166.688 13.6239C167.559 15.0956 167.995 16.7908 167.995 18.6996V24.3825C167.995 26.2914 167.559 27.9768 166.688 29.4339C165.817 30.8911 164.597 32.0179 163.034 32.8096C161.471 33.6014 159.656 33.9996 157.589 33.9996H153.233ZM157.492 28.3168C158.688 28.3168 159.636 27.9039 160.348 27.0782C161.059 26.2525 161.413 25.1742 161.413 23.8482V19.1368C161.413 17.8108 161.059 16.7325 160.348 15.9068C159.636 15.0811 158.702 14.6682 157.54 14.6682H153.378C152.216 14.6682 151.282 15.0811 150.571 15.9068C149.859 16.7325 149.506 17.8108 149.506 19.1368V23.8482C149.506 25.1742 149.859 26.2525 150.571 27.0782C151.282 27.9039 152.202 28.3168 153.33 28.3168H157.492Z" fill="white"></path><path d="M65.4623 34.0001C62.6212 34.0001 60.5399 33.3541 59.2186 32.0573C57.8972 30.7604 57.2341 28.7544 57.2341 26.0344V15.3973H52.9749V9.763H57.4278V2.42871H63.8167V9.763H70.1088V15.3973H63.8167V25.743C63.8167 26.6513 63.9861 27.3119 64.3249 27.7344C64.6637 28.157 65.2058 28.3659 65.9463 28.3659H70.1088V34.0001H65.4623Z" fill="white"></path><path d="M73.3276 9.76316H79.4262V12.8717C80.0409 11.9343 80.9169 11.162 82.064 10.5646C83.2111 9.96716 84.4115 9.66602 85.6699 9.66602H88.9612V15.3974H85.6699C83.9613 15.3974 82.5722 15.9172 81.5074 16.9517C80.4426 17.9863 79.9102 19.3172 79.9102 20.9346V24.4269H73.3276V9.76316Z" fill="white"></path><path fill-rule="evenodd" clip-rule="evenodd" d="M76.6188 26.4863C78.6856 26.4863 80.3602 28.1669 80.3602 30.2409C80.3602 32.3149 78.6856 33.9955 76.6188 33.9955C74.5521 33.9955 72.8774 32.3149 72.8774 30.2409C72.8774 28.1669 74.5521 26.4863 76.6188 26.4863Z" fill="#8CFF64"></path><path d="M35.081 33.9997C32.5303 33.9997 30.4829 33.1352 28.9341 31.4012C27.3853 29.6672 26.6108 27.394 26.6108 24.5769V18.9475H33.1934V24.674C33.1934 25.7426 33.4596 26.6072 33.992 27.2726C34.5244 27.938 35.2262 28.2683 36.0974 28.2683H38.9047C39.9695 28.2683 40.9375 27.8215 41.8088 26.9326C42.68 26.0437 43.2947 24.8683 43.648 23.4112V9.37402H50.2305V33.6112H44.132V30.5026C43.3915 31.5372 42.4767 32.3823 41.3974 33.0283C40.318 33.6743 39.2774 33.9997 38.2755 33.9997H35.081Z" fill="white"></path><path fill-rule="evenodd" clip-rule="evenodd" d="M29.902 16.8881C31.9688 16.8881 33.6434 15.2075 33.6434 13.1335C33.6434 11.0595 31.9688 9.37891 29.902 9.37891C27.8353 9.37891 26.1606 11.0595 26.1606 13.1335C26.1606 15.2075 27.8353 16.8881 29.902 16.8881Z" fill="#8CFF64"></path></g><defs><clipPath id="clip0_37_35"><rect width="168" height="34" fill="white"></rect></clipPath></defs></svg>