<svg xmlns="http://www.w3.org/2000/svg" width="168" height="34" viewBox="0 0 168 34" fill="none"><g clip-path="url(#clip0_37_20)"><path d="M102.179 34C100.147 34 98.346 33.6211 96.7826 32.8586C95.2193 32.096 93.9996 31.0274 93.1284 29.6529C92.2571 28.2783 91.8215 26.6997 91.8215 24.9171V18.6514C91.8215 16.7426 92.2571 15.0571 93.1284 13.6C93.9996 12.1429 95.2193 11.0111 96.7826 10.2C98.346 9.38886 100.147 8.98572 102.179 8.98572H106.051C109.149 8.98572 111.632 9.86 113.505 11.6086C115.378 13.3571 116.312 15.6886 116.312 18.6029V23.7514H98.4041V24.9171C98.4041 25.9857 98.7429 26.8454 99.4205 27.4914C100.098 28.1374 101.018 28.4629 102.179 28.4629H105.955C107.082 28.4629 107.997 28.2103 108.689 27.71C109.381 27.2097 109.73 26.554 109.73 25.7429H116.216C116.216 27.3603 115.78 28.8029 114.909 30.0657C114.038 31.3286 112.818 32.3 111.255 32.98C109.691 33.66 107.891 34 105.858 34H102.179ZM109.827 18.9914V18.6029C109.827 17.34 109.488 16.3297 108.81 15.5671C108.133 14.8046 107.228 14.4257 106.1 14.4257H102.179C101.018 14.4257 100.084 14.8289 99.3721 15.64C98.6606 16.4511 98.3073 17.5197 98.3073 18.8457V18.9914H109.827Z" fill="black"></path><path d="M136.06 34L128.51 24.2857L125.944 26.86V34H119.362V0H125.944V19.4286L135.479 9.76286H143.127L132.769 20.06L143.514 34H136.06Z" fill="black"></path><path d="M0 9.76285H6.09853V12.6771C6.81003 11.6717 7.72965 10.8703 8.85739 10.2729C9.98513 9.67543 11.1177 9.37428 12.2455 9.37428H15.1495C17.7293 9.37428 19.8057 10.1854 21.3691 11.8029C22.9324 13.4203 23.7165 15.5574 23.7165 18.2143V34H17.134V18.4571C17.134 17.4517 16.8678 16.6454 16.3354 16.0286C15.8029 15.4117 15.1156 15.1057 14.2783 15.1057H11.3742C10.2465 15.1057 9.23492 15.5186 8.34918 16.3443C7.46344 17.17 6.87295 18.2483 6.58254 19.5743V34H0V9.76285Z" fill="black"></path><path d="M153.233 34C151.2 34 149.399 33.6017 147.836 32.81C146.273 32.0183 145.063 30.8914 144.206 29.4343C143.349 27.9771 142.923 26.2917 142.923 24.3829V18.7C142.923 16.7911 143.359 15.096 144.23 13.6243C145.101 12.1526 146.321 11.0111 147.884 10.2C149.448 9.38886 151.248 8.98572 153.281 8.98572H157.637C159.67 8.98572 161.471 9.38886 163.034 10.2C164.597 11.0111 165.817 12.1526 166.688 13.6243C167.559 15.096 167.995 16.7911 167.995 18.7V24.3829C167.995 26.2917 167.559 27.9771 166.688 29.4343C165.817 30.8914 164.597 32.0183 163.034 32.81C161.471 33.6017 159.656 34 157.589 34H153.233ZM157.492 28.3171C158.688 28.3171 159.636 27.9043 160.348 27.0786C161.059 26.2529 161.413 25.1746 161.413 23.8486V19.1371C161.413 17.8111 161.059 16.7329 160.348 15.9071C159.636 15.0814 158.702 14.6686 157.54 14.6686H153.378C152.216 14.6686 151.282 15.0814 150.571 15.9071C149.859 16.7329 149.506 17.8111 149.506 19.1371V23.8486C149.506 25.1746 149.859 26.2529 150.571 27.0786C151.282 27.9043 152.202 28.3171 153.33 28.3171H157.492Z" fill="black"></path><path d="M65.4623 34C62.6212 34 60.5399 33.354 59.2186 32.0571C57.8972 30.7603 57.2341 28.7543 57.2341 26.0343V15.3971H52.9749V9.76286H57.4278V2.42857H63.8167V9.76286H70.1088V15.3971H63.8167V25.7429C63.8167 26.6511 63.9861 27.3117 64.3249 27.7343C64.6637 28.1569 65.2058 28.3657 65.9463 28.3657H70.1088V34H65.4623Z" fill="black"></path><path d="M73.3276 9.76285H79.4262V12.8714C80.0409 11.934 80.9169 11.1617 82.064 10.5643C83.2111 9.96685 84.4115 9.66571 85.6699 9.66571H88.9612V15.3971H85.6699C83.9613 15.3971 82.5722 15.9169 81.5074 16.9514C80.4426 17.986 79.9102 19.3169 79.9102 20.9343V24.4266H73.3276V9.76285Z" fill="black"></path><path fill-rule="evenodd" clip-rule="evenodd" d="M76.6188 26.486C78.6856 26.486 80.3602 28.1666 80.3602 30.2406C80.3602 32.3146 78.6856 33.9951 76.6188 33.9951C74.5521 33.9951 72.8774 32.3146 72.8774 30.2406C72.8774 28.1666 74.5521 26.486 76.6188 26.486Z" fill="#8CFF64"></path><path d="M35.081 34C32.5303 34 30.4829 33.1354 28.9341 31.4014C27.3853 29.6674 26.6108 27.3943 26.6108 24.5771V18.9477H33.1934V24.6743C33.1934 25.7429 33.4596 26.6074 33.992 27.2729C34.5244 27.9383 35.2262 28.2686 36.0974 28.2686H38.9047C39.9695 28.2686 40.9375 27.8217 41.8088 26.9329C42.68 26.044 43.2947 24.8686 43.648 23.4114V9.37428H50.2305V33.6114H44.132V30.5029C43.3915 31.5374 42.4767 32.3826 41.3974 33.0286C40.318 33.6746 39.2774 34 38.2755 34H35.081Z" fill="black"></path><path fill-rule="evenodd" clip-rule="evenodd" d="M29.902 16.8884C31.9688 16.8884 33.6434 15.2078 33.6434 13.1338C33.6434 11.0598 31.9688 9.37926 29.902 9.37926C27.8353 9.37926 26.1606 11.0598 26.1606 13.1338C26.1606 15.2078 27.8353 16.8884 29.902 16.8884Z" fill="#8CFF64"></path></g><defs><clipPath id="clip0_37_20"><rect width="168" height="34" fill="white"></rect></clipPath></defs></svg>