<svg xmlns="http://www.w3.org/2000/svg" width="105" height="72" viewBox="0 0 105 72" fill="none"><path d="M13.4 54C21.4 54 26.7 49.5 26.7 41.9V24.6H13.4V34H15.9V41.6C15.9 43.5 14.7 44.5 13.4 44.5C12.1 44.5 10.9 43.4 10.9 41.6V12.4C10.9 10.5 12.1 9.5 13.4 9.5C14.7 9.5 15.9 10.6 15.9 12.4V17.9H26.6V12.1C26.6 4.5 21.3 0 13.4 0C5.4 0 0.1 4.5 0.1 12.1V41.8C0.1 49.5 5.4 54 13.4 54ZM15 33.1H14.2V25.3H25.8V26.1H15V33.1ZM13.4 45.3C15 45.3 16.7 44 16.7 41.6V34H17.5V42.4C17.5 44.8 15.8 46.1 14.2 46.1C13.2 46.1 12.1 45.6 11.5 44.6C12 45 12.7 45.3 13.4 45.3ZM17.5 17.1H16.7V12.4C16.7 11.5 16.5 10.7 16.1 10.2C16.9 10.8 17.5 11.8 17.5 13.3V17.1ZM0.9 12.1C0.9 5.1 5.7 0.8 13.3 0.8C17.7 0.8 21.1 2.2 23.2 4.7C21 2.7 17.9 1.6 14.1 1.6C6.5 1.6 1.7 6 1.7 12.9V42.6C1.7 45.6 2.6 48.1 4.2 50C2.1 48 0.9 45.2 0.9 41.8V12.1ZM38.7 34.7V53.3H49.4V34.7C54.3 33.3 57.2 29 57.2 23.3V0.6H46.5V23C46.5 24.9 45.4 25.9 44.1 25.9C42.8 25.9 41.7 24.9 41.7 23V0.6H30.9V23.3C30.9 29.1 33.8 33.4 38.7 34.7ZM44.1 26.7C45.7 26.7 47.4 25.4 47.4 23V1.5H56.5V2.3H48.2V23.9C48.2 26.3 46.6 27.6 44.9 27.6C43.9 27.6 42.9 27.1 42.3 26.2C42.8 26.5 43.4 26.7 44.1 26.7ZM40.3 52.5H39.5V34.7C39.6 34.7 39.6 34.8 39.7 34.8L40.3 35V52.5ZM31.7 1.5H40.8V2.3H32.5V24.2C32.5 27.3 33.4 29.9 35.1 31.9C33 29.9 31.7 27 31.7 23.4V1.5ZM72.7 12.4C72.7 10.5 73.9 9.5 75.4 9.5C76.8 9.5 78.1 10.6 78.1 12.4V53.3H88.8V12.4C88.8 10.5 90 9.5 91.5 9.5C92.9 9.5 94.2 10.6 94.2 12.4V53.3H104.9V12.1C104.9 4.5 99.4 0 91.4 0C88.4 0 85.1 1.3 83.5 3.2C82 1.3 78.4 0 75.4 0C67.4 0 62 4.5 62 12.1V53.3H72.7V12.4ZM95.8 52.5H95V12.4C95 11.5 94.8 10.8 94.4 10.2C95.2 10.8 95.8 11.8 95.8 13.2V52.5ZM84.1 3.7C85.6 2 88.6 0.8 91.4 0.8C95.9 0.8 99.4 2.2 101.6 4.8C99.4 2.8 96.2 1.6 92.2 1.6C89.4 1.6 86.4 2.8 84.9 4.5L84.3 5.2L83.7 4.5L83.6 4.4L84.1 3.7ZM79.7 52.5H78.9V12.4C78.9 11.5 78.7 10.8 78.3 10.2C79.1 10.8 79.7 11.8 79.7 13.2V52.5ZM63.6 12.9V52.5H62.8V12.1C62.8 5.1 67.6 0.8 75.4 0.8C78.3 0.8 81.6 2.1 82.9 3.7L83.1 3.9C81.5 2.6 78.7 1.6 76.2 1.6C68.4 1.6 63.6 6 63.6 12.9ZM39.1 63.3H38.2V65.6H39.2C39.7 65.6 40.1 65.5 40.2 65.3C40.4 65.1 40.5 64.8 40.5 64.4C40.5 64 40.4 63.7 40.1 63.6C40 63.4 39.6 63.3 39.1 63.3ZM48.5 63.1C47.9 63.1 47.5 63.3 47.1 63.7C46.7 64.1 46.5 64.6 46.5 65.2C46.5 65.8 46.7 66.3 47.1 66.7C47.5 67.1 48 67.3 48.5 67.3C49 67.3 49.5 67.1 49.9 66.7C50.3 66.3 50.5 65.8 50.5 65.2C50.5 64.6 50.3 64.1 49.9 63.7C49.5 63.4 49 63.1 48.5 63.1ZM57.9 63.3H56.8V65.3H57.9C58.4 65.3 58.8 65.2 59 65C59.2 64.8 59.3 64.6 59.3 64.2C59.3 63.8 59.2 63.6 59 63.4C58.8 63.3 58.4 63.3 57.9 63.3ZM105 58H0L6.8 65L0 72H105L98.2 65L105 58ZM32.8 68.3C32.3 68.7 31.7 68.9 31 68.9C29.9 68.9 28.9 68.5 28.1 67.7L29 66.6C29.7 67.2 30.4 67.6 31 67.6C31.3 67.6 31.5 67.5 31.7 67.4C31.9 67.3 31.9 67.1 31.9 66.9C31.9 66.7 31.8 66.5 31.6 66.4C31.4 66.3 31.1 66.2 30.6 66C29.8 65.8 29.2 65.6 28.9 65.3C28.5 65 28.3 64.5 28.3 63.9C28.3 63.3 28.5 62.8 29 62.4C29.5 62.1 30 61.9 30.7 61.9C31.2 61.9 31.6 62 32.1 62.1C32.6 62.3 33 62.5 33.3 62.8L32.5 63.9C31.9 63.5 31.3 63.2 30.7 63.2C30.4 63.2 30.2 63.3 30.1 63.4C30 63.5 29.9 63.7 29.9 63.9C29.9 64.1 30 64.3 30.2 64.4C30.4 64.5 30.8 64.7 31.4 64.8C32 65 32.5 65.2 32.9 65.5C33.3 65.8 33.4 66.3 33.4 66.9C33.5 67.4 33.2 67.9 32.8 68.3ZM41.4 66.3C40.9 66.7 40.2 66.9 39.2 66.9H38.3V68.8H36.8V62H39.2C40.2 62 41 62.2 41.5 62.6C42 63 42.2 63.6 42.2 64.5C42.1 65.3 41.9 65.9 41.4 66.3ZM51 67.8C50.3 68.5 49.5 68.8 48.5 68.8C47.5 68.8 46.6 68.5 46 67.8C45.3 67.1 45 66.3 45 65.3C45 64.3 45.3 63.5 46 62.8C46.7 62.1 47.5 61.8 48.5 61.8C49.5 61.8 50.4 62.1 51 62.8C51.7 63.5 52 64.3 52 65.3C52 66.3 51.7 67.2 51 67.8ZM59.4 68.8L57.9 66.6H56.8V68.8H55.3V62H57.9C59 62 59.7 62.2 60.2 62.5C60.7 62.9 60.9 63.4 60.9 64.2C60.9 65.3 60.5 66 59.6 66.3L61.3 68.7H59.4V68.8ZM69 63.3H67.1V68.8H65.6V63.3H63.7V62H69V63.3ZM76.3 68.3C75.8 68.7 75.2 68.9 74.5 68.9C73.4 68.9 72.4 68.5 71.6 67.7L72.5 66.6C73.2 67.2 73.9 67.6 74.5 67.6C74.8 67.6 75 67.5 75.2 67.4C75.4 67.3 75.4 67.1 75.4 66.9C75.4 66.7 75.3 66.5 75.1 66.4C74.9 66.3 74.6 66.2 74.1 66C73.3 65.8 72.7 65.6 72.4 65.3C72 65 71.8 64.5 71.8 63.9C71.8 63.3 72 62.8 72.5 62.4C73 62.1 73.5 61.9 74.2 61.9C74.7 61.9 75.1 62 75.6 62.1C76.1 62.3 76.5 62.5 76.8 62.8L76 63.8C75.4 63.4 74.8 63.1 74.2 63.1C73.9 63.1 73.7 63.2 73.6 63.3C73.5 63.4 73.4 63.6 73.4 63.8C73.4 64 73.5 64.2 73.7 64.3C73.9 64.4 74.3 64.6 74.9 64.7C75.5 64.9 76 65.1 76.4 65.4C76.8 65.7 76.9 66.2 76.9 66.8C76.9 67.4 76.7 67.9 76.3 68.3Z" fill="black"></path></svg>