<svg xmlns="http://www.w3.org/2000/svg" width="150" height="75" viewBox="0 0 150 75" fill="none"><path d="M24.6 31.9C25 32.6 25.3 33.4 25.7 34.1C26.1 35 26.3 35.4 26.7 36.3C26.4 35.5 26.1 34.8 25.8 34C25.5 33.3 25.1 32.5 24.8 31.8C24.4 31.1 24 30.4 23.5 29.7C23.3 29.4 23 29 22.7 28.7C22.6 28.5 22.4 28.4 22.2 28.3C22.4 28.4 22.5 28.6 22.6 28.8C22.9 29.1 23.1 29.5 23.3 29.8C23.8 30.5 24.2 31.2 24.6 31.9ZM123.3 36.3C123.7 35.4 123.9 35 124.3 34.1C124.7 33.4 125 32.6 125.4 31.9C125.8 31.2 126.2 30.5 126.6 29.8C126.8 29.5 127.1 29.1 127.3 28.8C127.4 28.6 127.6 28.5 127.7 28.3C127.9 28.2 128 28 128.3 28C128.1 28 127.9 28.2 127.7 28.3C127.5 28.4 127.4 28.6 127.2 28.7C126.9 29 126.7 29.3 126.4 29.7C125.9 30.4 125.5 31.1 125.1 31.8C124.7 32.5 124.4 33.3 124.1 34C123.9 34.8 123.6 35.6 123.3 36.3ZM149.1 37.9C147.8 37.3 147.1 36.9 145.8 36.3C145.9 34.9 145.6 33.8 144.8 33.5C143.3 32.8 141.7 32.2 140.2 31.5C140.2 29.8 139.8 28.6 138.9 28.3C136.9 27.5 134.8 26.7 132.7 26C134.7 26.9 136.7 27.8 138.7 28.8C141.2 30.8 138.7 37.1 138.1 39.4V39.5C138.5 38.4 138.8 37.2 139 36.1C139.3 34.9 139.5 33.8 139.5 32.6C139.3 33.8 139.1 34.9 138.7 36.1C138.3 37.3 138 38.3 137.6 39.4C137.3 40.1 137 40.9 136.7 41.6C137 40.8 137.2 40.1 137.5 39.3C137.8 38.2 138.2 37 138.4 35.9C138.7 34.7 138.8 33.6 138.9 32.4C138.7 33.6 138.5 34.7 138.1 35.9C137.8 37 137.4 38.1 137 39.2C136.7 39.9 136.4 40.7 136.1 41.4C136.4 40.6 136.6 39.9 136.9 39.1C137.2 38 137.5 36.8 137.8 35.7C138 34.5 138.2 33.4 138.3 32.2C138.1 33.4 137.9 34.5 137.5 35.7C137.2 36.8 136.8 37.9 136.4 39C136.1 39.7 135.8 40.5 135.5 41.2C135.8 40.4 136 39.7 136.2 38.9C136.5 37.8 136.8 36.6 137.1 35.5C137.3 34.3 137.5 33.2 137.6 32C137.4 33.2 137.2 34.3 136.9 35.5C136.6 36.6 136.2 37.7 135.8 38.8C135.5 39.5 135.2 40.3 134.9 41C135.2 40.2 135.4 39.5 135.6 38.7C135.9 37.6 136.2 36.4 136.5 35.3C136.7 34.1 136.9 33 137 31.8C136.8 33 136.6 34.1 136.3 35.3C136 36.4 135.6 37.6 135.2 38.7C134.9 39.4 134.6 40.2 134.3 40.9C134.6 40.1 134.8 39.4 135 38.6C135.3 37.5 135.6 36.3 135.9 35.2C136.1 34 136.3 32.9 136.4 31.7C136.3 32.9 136 34 135.7 35.2C135.4 36.3 135 37.5 134.6 38.6C134.3 39.3 134 40.1 133.7 40.8C134 40 134.2 39.3 134.4 38.5C134.7 37.4 135 36.2 135.2 35.1C135.4 33.9 135.6 32.8 135.7 31.6C135.6 32.8 135.3 33.9 135 35.1C134.7 36.2 134.3 37.4 133.9 38.5C133.6 39.2 133.3 40 133.1 40.7C133.4 39.9 133.6 39.2 133.8 38.4C134.1 37.3 134.4 36.1 134.6 35C134.8 33.8 135 32.7 135.1 31.5C135 32.7 134.7 33.8 134.4 35C134.1 36.1 133.7 37.3 133.4 38.4C133.1 39.1 132.9 39.9 132.6 40.6C132.8 39.8 133.1 39.1 133.3 38.3C133.6 37.2 133.9 36 134.1 34.8C134.3 33.6 134.5 32.5 134.5 31.3C134.4 32.5 134.1 33.6 133.8 34.8C133.5 35.9 133.2 37.1 132.8 38.2C132.5 38.9 132.3 39.7 132 40.4C132.2 39.6 132.5 38.9 132.7 38.1C133 37 133.3 35.8 133.5 34.6C133.7 33.4 133.9 32.3 133.9 31.1C133.8 32.3 133.5 33.4 133.2 34.6C132.9 35.7 132.6 36.9 132.2 38C131.9 38.7 131.7 39.5 131.4 40.2C131.6 39.4 131.9 38.7 132.1 37.9C132.4 36.8 132.7 35.6 132.9 34.4C133.1 33.2 133.3 32.1 133.3 30.9C133.2 32.1 132.9 33.2 132.7 34.4C132.4 35.5 132.1 36.7 131.7 37.8C131.4 38.6 131.2 39.3 130.9 40C131.1 39.3 131.3 38.6 131.5 37.9C131.8 36.7 132.1 35.5 132.3 34.3C132.5 33.1 132.7 31.9 132.7 30.7C132.6 31.9 132.3 33.1 132 34.3C131.7 35.5 131.4 36.6 131 37.8C130.9 38.1 130.8 38.4 130.7 38.7C131.7 35.4 133.6 30 131.5 26.7C132.2 28.6 132 30.8 131.6 32.8C131 36 128.9 42 128.9 42C128.9 42 133.7 27.1 130.1 25.9C126.6 24.8 122.8 35.4 121.7 38.4C91.1 29.3 59 29.3 28.4 38.4C27.4 35.6 23.7 24.7 20 25.9C16.1 27.1 21.2 42 21.2 42C21.2 42 19 36 18.5 32.8C18.1 30.9 17.9 28.6 18.6 26.7C16.4 30 18.4 35.4 19.4 38.7C19.3 38.4 19.2 38.1 19.1 37.8C18.7 36.7 18.4 35.5 18.1 34.3C17.8 33.1 17.6 31.9 17.4 30.7C17.4 31.9 17.6 33.1 17.8 34.3C18 35.5 18.3 36.7 18.6 37.9C18.8 38.6 19 39.3 19.2 40C18.9 39.3 18.6 38.5 18.4 37.8C18 36.7 17.7 35.6 17.4 34.4C17.1 33.3 16.9 32.1 16.8 30.9C16.8 32.1 17 33.3 17.2 34.4C17.4 35.6 17.7 36.7 18 37.9C18.2 38.7 18.4 39.4 18.7 40.2C18.4 39.5 18.1 38.7 17.9 38C17.5 36.9 17.2 35.8 16.9 34.6C16.6 33.5 16.4 32.3 16.2 31.1C16.3 32.3 16.4 33.5 16.6 34.6C16.8 35.8 17.1 36.9 17.4 38.1C17.6 38.9 17.8 39.6 18.1 40.4C17.8 39.7 17.5 38.9 17.3 38.2C16.9 37.1 16.6 36 16.3 34.8C16 33.7 15.8 32.5 15.6 31.3C15.7 32.5 15.8 33.7 16 34.8C16.2 36 16.5 37.1 16.8 38.3C17 39.1 17.3 39.8 17.5 40.6C17.2 39.9 16.9 39.1 16.7 38.4C16.3 37.3 16 36.2 15.7 35C15.4 33.9 15.2 32.7 15 31.5C15.1 32.7 15.2 33.9 15.5 35C15.7 36.2 16 37.3 16.3 38.4C16.5 39.2 16.8 39.9 17 40.7C16.7 40 16.4 39.2 16.2 38.5C15.8 37.4 15.4 36.3 15.1 35.1C14.8 34 14.5 32.8 14.4 31.6C14.5 32.8 14.6 34 14.9 35.1C15.1 36.3 15.4 37.4 15.7 38.5C15.9 39.3 16.2 40 16.4 40.8C16.1 40.1 15.8 39.3 15.5 38.6C15.1 37.5 14.7 36.4 14.4 35.2C14.1 34.1 13.8 32.9 13.7 31.7C13.8 32.9 13.9 34.1 14.2 35.2C14.4 36.4 14.7 37.5 15.1 38.6C15.3 39.4 15.6 40.1 15.8 40.9C15.5 40.2 15.2 39.4 14.9 38.7C14.5 37.6 14.1 36.5 13.8 35.3C13.5 34.2 13.2 33 13.1 31.8C13.2 33 13.4 34.2 13.6 35.3C13.8 36.5 14.1 37.6 14.5 38.7C14.7 39.5 15 40.2 15.2 41C14.9 40.3 14.6 39.5 14.3 38.8C13.9 37.7 13.5 36.6 13.2 35.5C12.9 34.4 12.6 33.2 12.5 32C12.6 33.2 12.8 34.4 13 35.5C13.2 36.7 13.5 37.8 13.9 38.9C14.1 39.7 14.4 40.4 14.6 41.2C14.3 40.5 14 39.7 13.7 39C13.3 37.9 12.9 36.8 12.6 35.7C12.3 34.6 12 33.4 11.8 32.2C11.9 33.4 12.1 34.6 12.3 35.7C12.5 36.9 12.9 38 13.2 39.1C13.4 39.9 13.7 40.6 14 41.4C13.7 40.7 13.4 39.9 13.1 39.2C12.7 38.1 12.3 37 12 35.9C11.7 34.8 11.4 33.6 11.2 32.4C11.3 33.6 11.5 34.8 11.7 35.9C12 37.1 12.3 38.2 12.6 39.3C12.8 40.1 13.1 40.8 13.4 41.6C13.1 40.9 12.8 40.1 12.5 39.4C12.1 38.3 11.7 37.2 11.4 36.1C11.1 35 10.8 33.8 10.6 32.6C10.7 33.8 10.9 35 11.1 36.1C11.4 37.3 11.7 38.4 12 39.5V39.4C11.3 37.1 8.9 30.8 11.4 28.8C13.4 27.8 15.4 26.9 17.4 26C15.3 26.7 13.3 27.5 11.2 28.3C10.3 28.7 9.9 29.8 9.9 31.5C8.3 32.1 6.8 32.8 5.3 33.5C4.5 33.8 4.2 34.9 4.3 36.3C3 36.9 2.3 37.2 1 37.9C-1.6 40.4 2.1 46.8 3.3 49.1C4.5 51.4 7.4 58 10.7 57.8C11.9 57.2 12.4 57 13.6 56.4C14.6 57.4 15.5 57.9 16.1 57.6C17.7 56.9 18.4 56.6 20 55.9C21.1 57.1 22.1 57.7 22.8 57.4C24.8 56.6 26.9 55.8 28.9 55.1C29.1 55 29.4 54.9 29.8 54.8H29.9C33.1 53.3 29.8 42.6 29.1 39.9C59.2 31 90.8 31 120.9 39.9C120.1 42.8 116.9 53.2 120.1 54.8H120.2C120.6 54.9 120.9 55 121.1 55.1C123.2 55.8 125.2 56.6 127.2 57.4C127.9 57.7 128.9 57.1 130 55.9C131.6 56.5 132.4 56.9 133.9 57.6C134.5 57.9 135.4 57.4 136.4 56.4C137.6 56.9 138.1 57.2 139.3 57.8C142.6 58 145.5 51.4 146.7 49.1C148 46.8 151.7 40.4 149.1 37.9ZM4.9 41.6C5.1 42.4 5.4 43.2 5.7 44C5.9 44.5 6.1 45.1 6.3 45.6C6 45 5.8 44.5 5.6 44C5.3 43.2 5 42.5 4.7 41.7C4.4 40.9 4.2 40.1 4 39.3C4.1 40.1 4.3 41 4.5 41.8C4.7 42.6 5 43.4 5.3 44.2C5.5 44.7 5.7 45.3 5.9 45.8C5.7 45.3 5.4 44.8 5.2 44.3C4.9 43.5 4.6 42.8 4.3 42C4 41.2 3.8 40.4 3.6 39.6C3.7 40.4 3.9 41.3 4.1 42.1C4.3 42.9 4.6 43.7 4.9 44.5C5.1 45 5.3 45.6 5.5 46.1C5.3 45.6 5 45.1 4.8 44.6C4.5 43.8 4.1 43.1 3.9 42.3C3.6 41.5 3.4 40.7 3.2 39.9C3.3 40.7 3.5 41.6 3.7 42.4C3.9 43.2 4.2 44 4.5 44.8C4.7 45.3 4.9 45.8 5.1 46.4C4.8 45.9 4.6 45.4 4.4 44.9C4.1 44.1 3.7 43.4 3.5 42.6C3.2 41.8 3 41 2.8 40.2C2.9 41 3.1 41.8 3.3 42.7C3.5 43.5 3.8 44.3 4.1 45.1C4.3 45.6 4.5 46.1 4.7 46.7C4.4 46.2 4.2 45.7 4 45.2C3.6 44 3.3 43.3 3 42.5C2.7 41.7 2.5 40.9 2.3 40.1C2.4 40.9 2.6 41.7 2.8 42.5C3 43.3 3.3 44.1 3.6 44.9C3.8 45.4 4 45.9 4.2 46.5C3.9 46 3.7 45.5 3.5 45C3.2 44.3 2.8 43.5 2.6 42.7C2.3 41.9 2.1 41.1 1.9 40.3C2 41.1 2.2 41.9 2.5 42.7C2.7 43.5 3 44.3 3.3 45.1C3.5 45.6 3.7 46.1 3.9 46.7C3.6 46.2 3.4 45.7 3.2 45.2C2.9 44.5 2.5 43.7 2.2 42.9C1.9 42.1 1.7 41.3 1.5 40.5C1.6 41.3 1.8 42.1 2.1 42.9C2.3 43.7 2.6 44.5 2.9 45.3C3.1 45.8 3.3 46.3 3.5 46.9C3.2 46.4 3 45.9 2.8 45.4C2.5 44.7 2.1 43.9 1.8 43.1C1.5 42.3 1.3 41.5 1.1 40.7C1.2 41.5 1.4 42.3 1.7 43.1C1.9 43.9 2.2 44.7 2.5 45.5C2.7 46 2.9 46.5 3.1 47.1C2.8 46.6 2.6 46.1 2.4 45.6C2 44.9 1.7 44.1 1.4 43.3C1.1 42.5 0.9 41.7 0.7 40.9C0.8 41.7 1 42.5 1.3 43.3C1.5 44.1 1.8 44.9 2.1 45.7C2.1 45.7 2.1 45.7 2.1 45.6C1.4 43.7 -0.3 40.2 1.1 38.2C2.4 37.4 3 37.1 4.3 36.3C4.4 38.3 5 40.4 5.7 42.3C5.9 42.8 6 43.2 6.2 43.7C6.4 44.2 6.6 44.8 6.8 45.3C6.6 44.8 6.3 44.3 6.1 43.8C5.8 43 5.5 42.3 5.2 41.5C4.9 40.7 4.7 39.9 4.5 39.1C4.5 40 4.7 40.8 4.9 41.6ZM10.4 37.8C10.6 38.8 10.9 39.7 11.2 40.7C11.4 41.3 11.6 42 11.9 42.6C11.6 42 11.4 41.4 11.1 40.8C10.7 39.9 10.4 39 10.1 38C9.8 37.1 9.6 36.1 9.4 35.1C9.5 36.1 9.7 37.1 9.9 38.1C10.1 39.1 10.4 40 10.7 41C10.9 41.6 11.1 42.3 11.4 42.9C11.1 42.3 10.9 41.7 10.6 41.1C10.2 40.2 9.9 39.3 9.6 38.3C9.3 37.4 9.1 36.4 8.9 35.4C9 36.4 9.2 37.4 9.4 38.4C9.6 39.4 9.9 40.3 10.2 41.3C10.4 41.9 10.6 42.6 10.9 43.2C10.6 42.6 10.4 42 10.1 41.4C9.7 40.5 9.4 39.6 9.1 38.6C8.8 37.7 8.6 36.7 8.4 35.7C8.5 36.7 8.7 37.7 8.9 38.7C9.1 39.7 9.4 40.6 9.7 41.6C9.9 42.2 10.1 42.9 10.4 43.5C10.1 42.9 9.9 42.3 9.6 41.7C9.2 40.8 8.9 39.9 8.6 38.9C8.3 38 8 37 7.9 36C8 37 8.2 38 8.4 39C8.6 40 8.9 40.9 9.2 41.9C9.4 42.5 9.6 43.2 9.9 43.8C9.6 43.2 9.4 42.6 9.1 42C8.7 41.1 8.4 40.2 8.1 39.2C7.8 38.3 7.5 37.3 7.4 36.3C7.5 37.3 7.7 38.3 7.9 39.3C8.1 40.3 8.4 41.2 8.7 42.2C9 42.4 9.2 43 9.4 43.7C9.1 43.1 8.8 42.5 8.6 41.9C8.2 41 7.9 40.1 7.6 39.1C7.3 38.2 7 37.2 6.9 36.2C7 37.2 7.2 38.2 7.5 39.2C7.7 40.2 8 41.1 8.4 42.1C8.6 42.7 8.9 43.4 9.1 44C8.8 43.4 8.5 42.8 8.3 42.2C7.9 41.3 7.6 40.4 7.3 39.4C7 38.5 6.7 37.5 6.6 36.5C6.7 37.5 6.9 38.5 7.2 39.4C7.4 40.4 7.7 41.3 8.1 42.3C8.3 42.9 8.6 43.6 8.8 44.2C8.5 43.6 8.2 43 8 42.4C7.6 41.5 7.3 40.6 6.9 39.6C6.6 38.7 6.3 37.7 6.1 36.7C6.2 37.7 6.4 38.7 6.7 39.6C7 40.6 7.2 41.5 7.6 42.5C7.8 43.1 8.1 43.8 8.3 44.4C8 43.8 7.7 43.2 7.5 42.6C7.1 41.7 6.8 40.8 6.4 39.8C6.1 38.9 5.8 37.9 5.6 36.9C5.7 37.9 5.9 38.9 6.2 39.8C6.5 40.8 6.8 41.7 7.1 42.7C7.3 43.3 7.6 44 7.8 44.6C7.5 44 7.2 43.4 7 42.8C6.3 41.8 6 40.9 5.6 40C5.3 39 5 38.1 4.9 37.1C5 38.1 5.2 39.1 5.5 40C5.8 41 6.1 41.9 6.4 42.8V42.7C5.7 40.8 3.6 35.8 5.5 33.8C7 33 8.5 32.2 10 31.5C10 34.4 10.9 37.3 11.7 40C12 41 12.1 41.4 12.4 42.4C12.1 41.8 11.9 41.2 11.6 40.5C11.2 39.6 10.9 38.6 10.6 37.7C10.3 36.8 10.1 35.8 9.9 34.8C9.9 35.9 10.1 36.9 10.4 37.8ZM30.4 52.8C30.5 52.4 30.5 52 30.6 51.6C30.6 53.3 30.4 54.3 29.8 54.5H29.7C29.7 54.5 29.8 54.5 29.8 54.4L29.9 54.3C30 54.2 30 54.1 30 54.1C30.1 54 30.1 53.8 30.2 53.7C30.2 53.3 30.3 53 30.4 52.8ZM30 46.4C30.1 46.8 30.1 47.3 30.1 47.7C30.1 47.6 30.1 47.5 30.1 47.4C30 46.5 29.8 45.6 29.6 44.7C29.4 43.8 29.2 42.9 28.9 42.1C29.3 43.9 29.6 45.7 29.9 47.4C30 48.2 30.1 49 30.1 49.9C30.1 49.6 30 49.3 30 49C29.9 48.2 29.8 47.5 29.6 46.7C29.4 46 29.3 45.2 29.1 44.5C29.2 45 29.2 45.2 29.3 45.6C29.4 46 29.4 46.4 29.5 46.7C29.6 47.5 29.7 48.2 29.8 49C29.9 49.6 30 50.2 30 50.8C30 51 30 51.2 29.9 51.4C29.9 51.5 29.9 51.5 29.9 51.5C29.9 51.5 29.9 51.6 29.8 51.6C29.8 51.6 29.8 51.7 29.7 51.7L29.6 51.8C29.5 51.8 29.5 51.9 29.4 51.8C29.3 51.8 29.2 51.8 29.2 51.7C28.9 51.5 28.6 51.1 28.3 50.8C28 50.5 27.8 50.1 27.5 49.7C27 48.9 26.6 48.1 26.2 47.3C25.4 45.7 24.7 44 24 42.3C23.4 40.6 22.8 38.9 22.3 37.2C21.8 35.5 21.3 33.7 21.1 31.9C21 31 20.9 30.1 20.9 29.2C20.9 28.8 20.9 28.3 21.1 27.9C21.2 27.7 21.3 27.5 21.4 27.4C21.6 27.3 21.8 27.3 22 27.4C22.4 27.6 22.8 27.9 23.1 28.3C23.4 28.6 23.7 29 23.9 29.4C24.2 29.8 24.4 30.2 24.6 30.6C24.8 31 25.1 31.4 25.3 31.8C24.9 31 24.5 30.2 24 29.4C23.8 29 23.5 28.6 23.2 28.3C23.1 28.1 22.9 27.9 22.7 27.8C22.5 27.6 22.3 27.5 22.1 27.4C22 27.3 21.8 27.3 21.7 27.3C21.6 27.3 21.5 27.3 21.4 27.3H21.3C21.3 27.3 21.2 27.3 21.2 27.4C20.9 27.6 20.8 27.9 20.7 28.1C20.5 28.6 20.5 29.1 20.5 29.5C20.5 30.4 20.5 31.4 20.7 32.3C21.2 35.9 22.3 39.4 23.6 42.8C24.2 44.5 25 46.2 25.8 47.8C25.9 48 26.1 48.3 26.2 48.5C25.6 47.6 25.2 46.6 24.7 45.6C25.1 46.6 25.6 47.7 26.1 48.6C26.6 49.6 27.2 50.6 28 51.4C28.2 51.6 28.4 51.9 28.6 52.1C28.5 52 28.4 52 28.3 51.9C27.5 51.1 26.9 50.2 26.3 49.2C25.7 48.3 25.2 47.3 24.7 46.2C25.1 47.2 25.6 48.3 26.1 49.2C26.6 50.2 28.1 52.2 28.1 52.2C28.1 52.2 26.9 50.7 26.4 49.8C25.8 48.9 25.3 47.9 24.8 46.8C25.2 47.8 25.7 48.9 26.2 49.8C26.5 50.4 26.9 51 27.3 51.6C27 51.2 26.7 50.7 26.4 50.2C25.8 49.3 25.3 48.3 24.8 47.2C25 47.8 25.3 48.4 25.6 49C24.1 46.3 22.9 43.5 21.9 40.7C20.8 37.6 17.5 26.2 20.3 25.2C22.8 24.3 27 34.7 28 37.3C27.4 37.5 27.1 37.6 26.5 37.8C26.1 36.9 25.6 36 25.1 36.2C24 36.9 24.6 39.1 25 40C25 40.1 25 40.1 25.1 40.2C25 40 24.9 39.8 24.8 39.6C24.7 39.2 24.5 38.9 24.4 38.5C24.5 38.9 24.6 39.3 24.7 39.7C24.7 39.8 24.8 40 24.8 40.1C24.7 40 24.7 39.9 24.7 39.7C24.6 39.3 24.4 39 24.3 38.6C24.4 39 24.5 39.4 24.6 39.8C24.6 39.9 24.7 40.1 24.7 40.2C24.6 40.1 24.6 40 24.6 39.8C24.5 39.4 24.3 39.1 24.2 38.7C24.3 39.1 24.4 39.5 24.5 39.9V40C24.1 38.7 24 37.8 24.1 37.6C24.3 37.3 24.4 37.2 24.7 36.9C24.4 37 24.2 37.1 23.9 37.2C23.1 37.5 23.8 39.7 24.1 40.6C24.4 41.5 25.3 43.7 26 43.4C26.4 43.2 26.7 43.2 27.1 43C27.6 42.8 27.5 41.8 27.3 40.8C27.9 40.6 28.2 40.5 28.8 40.3C29.1 42.3 29.6 44.3 30 46.4ZM25.8 39.8C25.9 40.2 26.1 40.5 26.2 40.8C26.2 40.9 26.4 40.9 26.5 40.9C26.5 41 26.5 41 26.5 41.1C26.5 41.1 26.5 41.1 26.5 41.2V41.3C26.5 41.3 26.5 41.3 26.5 41.4V41.5C26.5 41.5 26.5 41.5 26.5 41.6V42C26.5 42 26.5 42 26.5 42.1C26.2 41.8 25.8 41 25.4 39.7C25 38.4 24.9 37.5 24.9 37.1C24.9 37.1 24.9 37.1 25 37.2C25 37.2 25 37.3 25.1 37.3C25.1 37.3 25.1 37.4 25.2 37.4C25.2 37.4 25.2 37.5 25.3 37.5C25.3 37.5 25.4 37.6 25.4 37.7C25.4 37.7 25.4 37.8 25.5 37.8C25.5 37.8 25.5 37.8 25.5 37.9C25.5 37.9 25.5 38 25.6 38C25.6 38 25.6 38 25.6 38.1C25.6 38.1 25.6 38.1 25.6 38.2C25.5 38.2 25.4 38.3 25.4 38.4C25.5 39 25.6 39.4 25.8 39.8ZM26.6 39.5C26.3 39.6 26 39.5 25.9 39.2C25.8 38.9 26 38.7 26.3 38.6C58.1 28.7 91.7 28.7 123.5 38.5C123.8 38.6 124 38.9 123.9 39.1C123.8 39.4 123.5 39.5 123.2 39.4C91.6 29.6 58.2 29.6 26.6 39.5ZM124.3 38.5C124.3 38.4 124.3 38.4 124.3 38.5C124.3 38.4 124.3 38.4 124.4 38.4C124.4 38.4 124.4 38.3 124.5 38.3C124.5 38.3 124.5 38.3 124.5 38.2C124.5 38.1 124.5 38.1 124.6 38.1C124.6 38 124.7 38 124.7 37.9C124.7 37.9 124.7 37.8 124.8 37.8C124.8 37.8 124.8 37.7 124.9 37.7C124.9 37.7 124.9 37.6 125 37.6C125 37.6 125 37.5 125.1 37.5C125.1 37.9 125 38.8 124.6 40.1C124.2 41.4 123.7 42.2 123.5 42.5C123.5 42.5 123.5 42.5 123.5 42.4C123.5 42.4 123.5 42.4 123.5 42.3V42C123.5 42 123.5 42 123.5 41.9V41.8C123.5 41.8 123.5 41.8 123.5 41.7V41.6C123.5 41.6 123.5 41.6 123.5 41.5C123.5 41.4 123.5 41.4 123.5 41.3C123.6 41.3 123.7 41.3 123.7 41.2C123.8 40.9 124 40.6 124.1 40.2C124.2 39.8 124.3 39.4 124.4 39.1C124.5 38.6 124.4 38.5 124.3 38.5ZM120.3 54.5C119.7 54.3 119.5 53.3 119.5 51.6C119.5 52 119.6 52.4 119.7 52.8C119.7 53.1 119.8 53.4 119.9 53.7C119.9 53.8 120 54 120.1 54.1C120.1 54.2 120.2 54.3 120.2 54.3C120.2 54.3 120.2 54.4 120.3 54.5C120.3 54.4 120.3 54.4 120.3 54.5ZM124.6 49.5C124.9 48.9 125.1 48.3 125.4 47.7C124.9 48.7 124.4 49.7 123.8 50.7C123.5 51.2 123.2 51.6 122.9 52.1C123.3 51.5 123.6 50.9 124 50.3C124.5 49.3 125 48.3 125.4 47.3C124.9 48.3 124.4 49.3 123.8 50.3C123.3 51.1 122.1 52.7 122.1 52.7C122.1 52.7 123.5 50.7 124.1 49.7C124.6 48.7 125.1 47.7 125.5 46.7C125 47.7 124.5 48.7 123.9 49.7C123.3 50.6 122.7 51.6 121.9 52.4C121.8 52.5 121.7 52.6 121.6 52.6C121.8 52.4 122 52.1 122.2 51.9C123 51 123.5 50.1 124.1 49.1C124.6 48.1 125.1 47.1 125.5 46.1C125.1 47.1 124.6 48 124 49C124.1 48.8 124.3 48.5 124.4 48.3C125.2 46.7 126 45 126.6 43.3C127.9 39.9 129 36.4 129.5 32.8C129.6 31.9 129.7 31 129.7 30C129.7 29.5 129.6 29 129.5 28.6C129.4 28.4 129.3 28.1 129 27.9C129 27.9 128.9 27.9 128.9 27.8H128.8C128.7 27.8 128.6 27.8 128.5 27.8C128.3 27.8 128.2 27.9 128.1 27.9C127.9 28 127.7 28.2 127.5 28.3C127.3 28.5 127.2 28.6 127 28.8C126.7 29.2 126.5 29.5 126.2 29.9C125.7 30.7 125.3 31.5 124.9 32.3C125.1 31.9 125.3 31.5 125.6 31.1C125.8 30.7 126.1 30.3 126.3 29.9C126.6 29.5 126.8 29.2 127.1 28.8C127.4 28.5 127.7 28.1 128.2 27.9C128.4 27.8 128.6 27.8 128.8 27.9C129 28 129.1 28.2 129.1 28.4C129.2 28.8 129.3 29.3 129.3 29.7C129.3 30.6 129.2 31.5 129.1 32.4C128.8 34.2 128.4 36 127.9 37.7C127.4 39.4 126.8 41.2 126.2 42.8C125.6 44.5 124.8 46.2 124 47.8C123.6 48.6 123.2 49.4 122.7 50.2C122.5 50.6 122.2 51 121.9 51.3C121.6 51.6 121.3 52 121 52.2C120.9 52.2 120.8 52.3 120.8 52.3C120.7 52.3 120.7 52.3 120.6 52.3L120.4 52.1C120.4 52.1 120.4 52 120.3 52V51.9C120.2 51.7 120.2 51.5 120.2 51.3C120.2 50.7 120.3 50.1 120.4 49.5C120.5 48.8 120.6 48 120.7 47.2C120.8 46.8 120.8 46.4 120.9 46.1C121 45.6 121 45.4 121.1 45C120.9 45.7 120.7 46.5 120.6 47.2C120.4 47.9 120.3 48.7 120.2 49.5C120.2 49.8 120.1 50.1 120.1 50.4C120.1 49.6 120.2 48.8 120.3 47.9C120.5 46.1 120.9 44.3 121.3 42.6C121 43.5 120.8 44.3 120.6 45.2C120.4 46.1 120.2 47 120.1 47.9C120.1 48 120.1 48.1 120.1 48.2C120.1 47.8 120.1 47.3 120.2 46.9C120.6 44.8 121.1 42.8 121.7 40.7C122.3 40.9 122.6 41 123.2 41.2C123 42.2 122.9 43.2 123.4 43.4C123.8 43.5 124.1 43.6 124.5 43.8C125.3 44.1 126.1 41.9 126.4 41C126.7 40.1 127.4 37.8 126.6 37.6C126.3 37.5 126.1 37.4 125.8 37.3C126 37.6 126.1 37.7 126.4 38C126.5 38.2 126.4 39.1 126 40.4V40.3C126.1 39.9 126.2 39.5 126.3 39.1C126.2 39.5 126 39.9 125.9 40.2C125.9 40.3 125.8 40.4 125.8 40.6C125.8 40.5 125.9 40.3 125.9 40.2C126 39.8 126.1 39.4 126.2 39C126.1 39.4 125.9 39.8 125.8 40.1C125.8 40.2 125.7 40.3 125.7 40.5C125.7 40.4 125.8 40.2 125.8 40.1C125.9 39.7 126 39.3 126.1 38.9C126 39.3 125.8 39.7 125.7 40C125.6 40.2 125.5 40.4 125.4 40.6C125.4 40.5 125.5 40.4 125.5 40.4C125.8 39.5 126.5 37.2 125.7 37C125.2 36.8 124.6 37.7 124.3 38.6C123.7 38.4 123.4 38.3 122.8 38.1C123.9 35.1 127.9 25.2 130.5 26C133.2 26.8 129.9 38.6 128.9 41.5C127.3 44 126 46.8 124.6 49.5ZM142.5 44.5C142.8 43.9 143 43.2 143.2 42.6C143.5 41.7 143.8 40.7 144.1 39.7C144.4 38.7 144.6 37.8 144.7 36.8C144.5 37.8 144.2 38.7 143.9 39.7C143.6 40.6 143.2 41.6 142.8 42.5C142.5 43.1 142.3 43.7 142 44.3C142.2 43.7 142.5 43 142.7 42.4C143 41.5 143.3 40.5 143.6 39.5C143.9 38.5 144.1 37.6 144.2 36.6C144 37.6 143.8 38.5 143.4 39.5C143.1 40.4 142.7 41.4 142.3 42.3C142 42.9 141.8 43.5 141.5 44.1C141.7 43.5 142 42.8 142.2 42.2C142.5 41.3 142.8 40.3 143.1 39.3C143.3 38.3 143.5 37.4 143.7 36.4C143.5 37.4 143.3 38.3 143 39.3C142.7 40.2 142.3 41.2 142 42.1C141.7 42.7 141.5 43.3 141.2 43.9C141.4 43.3 141.7 42.6 141.9 42C142.2 41.1 142.5 40.1 142.8 39.1C143 38.1 143.2 37.2 143.4 36.1C143.2 37.1 143 38 142.7 39C142.4 39.9 142 40.9 141.7 41.8C141.4 42.4 141.2 43 140.9 43.6C141.1 43 141.4 42.3 141.6 41.7C141.9 40.8 142.2 39.8 142.4 38.8C142.6 37.8 142.8 36.8 142.9 35.8C142.7 36.8 142.5 37.7 142.2 38.7C141.9 39.6 141.6 40.6 141.2 41.5C140.9 42.1 140.7 42.7 140.4 43.3C140.6 42.7 140.9 42 141.1 41.4C141.4 40.5 141.7 39.5 141.9 38.5C142.1 37.5 142.3 36.5 142.4 35.5C142.2 36.5 142 37.4 141.7 38.4C141.4 39.3 141.1 40.3 140.7 41.2C140.4 41.8 140.2 42.4 139.9 43C140.1 42.4 140.4 41.7 140.6 41.1C140.9 40.2 141.2 39.2 141.4 38.2C141.6 37.2 141.8 36.2 141.9 35.2C141.7 36.2 141.5 37.1 141.2 38.1C140.9 39 140.6 40 140.2 40.9C139.9 41.5 139.7 42.1 139.4 42.7C139.6 42.1 139.9 41.4 140.1 40.8C140.4 39.9 140.7 38.9 140.9 37.9C141.1 36.9 141.3 35.9 141.4 34.9C141.2 35.9 141 36.9 140.7 37.8C140.4 38.7 140.1 39.7 139.7 40.6C139.5 41.2 139.2 41.8 138.9 42.4C139.1 41.8 139.4 41.1 139.6 40.5C139.9 39.6 140.2 38.6 140.4 37.6C140.6 36.6 140.8 35.6 140.9 34.6C140.7 35.6 140.5 36.6 140.2 37.5C139.9 38.4 139.6 39.4 139.2 40.3C139 40.9 138.7 41.5 138.4 42.1C138.6 41.5 138.9 40.8 139.1 40.2C139.4 39.3 139.7 38.3 139.9 37.3C140.1 36.3 140.3 35.3 140.4 34.3C140.2 35.3 140 36.3 139.7 37.2C139.4 38.1 139.1 39.1 138.7 40C138.5 40.6 138.2 41.2 137.9 41.9C138.2 40.9 138.3 40.5 138.6 39.5C139.5 36.7 140.3 33.9 140.3 31C141.8 31.8 143.3 32.5 144.8 33.3C146.7 35.2 144.5 40.2 143.9 42.2V42.3C144.2 41.4 144.5 40.4 144.8 39.5C145.1 38.5 145.3 37.6 145.4 36.6C145.2 37.6 144.9 38.5 144.6 39.5C144.3 40.4 143.9 41.4 143.5 42.3C143 43.3 142.7 43.9 142.5 44.5ZM147.9 45.6C148.2 44.9 148.5 44.1 148.7 43.3C148.9 42.5 149.1 41.7 149.3 40.9C149.1 41.7 148.9 42.5 148.6 43.3C148.3 44.1 148 44.8 147.6 45.6C147.4 46.1 147.1 46.6 146.9 47.1C147.1 46.6 147.3 46.1 147.5 45.5C147.8 44.7 148.1 43.9 148.3 43.1C148.5 42.3 148.7 41.5 148.9 40.7C148.7 41.5 148.5 42.3 148.2 43.1C147.9 43.9 147.6 44.6 147.2 45.4C147 45.9 146.7 46.4 146.5 46.9C146.7 46.4 146.9 45.9 147.1 45.3C147.4 44.5 147.7 43.7 147.9 42.9C148.1 42.1 148.3 41.3 148.5 40.5C148.3 41.3 148.1 42.1 147.8 42.9C147.5 43.7 147.2 44.4 146.8 45.2C146.6 45.7 146.3 46.2 146.1 46.7C146.3 46.2 146.5 45.7 146.7 45.1C147 44.3 147.3 43.5 147.5 42.7C147.7 41.9 147.9 41.1 148.1 40.3C147.9 41.1 147.7 41.9 147.4 42.7C147.1 43.5 146.8 44.2 146.5 45C146.3 45.5 146 46 145.8 46.5C146 46 146.2 45.5 146.4 44.9C146.7 44.1 147 43.3 147.2 42.5C147.4 41.7 147.6 40.9 147.7 40.1C147.5 40.9 147.3 41.7 147 42.5C146.7 43.3 146.4 44 146.1 44.8C145.9 45.3 145.6 45.8 145.4 46.3C145.6 45.8 145.8 45.3 146 44.7C146.3 43.9 146.6 43.1 146.8 42.3C147 41.5 147.2 40.7 147.3 39.8C147.1 40.6 146.9 41.4 146.6 42.2C146.3 43 146 43.7 145.7 44.5C145.5 45 145.2 45.5 145 46C145.2 45.5 145.4 45 145.6 44.4C145.9 43.6 146.2 42.8 146.4 42C146.6 41.2 146.8 40.4 146.9 39.5C146.7 40.3 146.5 41.1 146.2 41.9C145.9 42.7 145.6 43.4 145.3 44.2C145.1 44.7 144.8 45.2 144.6 45.7C144.8 45.2 145 44.7 145.2 44.1C145.5 43.3 145.8 42.5 146 41.7C146.2 40.9 146.4 40.1 146.5 39.2C146.3 40 146.1 40.8 145.8 41.6C145.5 42.4 145.2 43.1 144.9 43.9C144.7 44.4 144.4 44.9 144.2 45.4C144.4 44.9 144.6 44.4 144.8 43.8C145.1 43 145.3 42.2 145.6 41.4C145.8 40.6 146 39.8 146.1 38.9C145.9 39.7 145.7 40.5 145.4 41.3C145.1 42.1 144.8 42.8 144.5 43.6C144.3 44.1 144 44.6 143.8 45.1C144 44.6 144.2 44.1 144.4 43.5C144.7 42.7 144.9 41.9 145.2 41.1C145.4 40.3 145.6 39.5 145.7 38.6C145.5 39.4 145.3 40.2 145 41C144.7 41.8 144.4 42.6 144.1 43.3C143.9 43.8 143.6 44.3 143.4 44.8C143.6 44.3 143.8 43.8 144 43.2C144.2 42.7 144.3 42.3 144.5 41.8C145.1 39.9 145.8 37.9 145.9 35.8C147.2 36.5 147.8 36.9 149.1 37.7C150.4 40.1 148.6 43.8 147.9 45.6ZM37.3 33C36.5 29.5 35.8 25.9 35 22.4C35.9 22.2 36.4 22.1 37.3 21.9C41.5 21 44.2 17.9 43.3 13.5C43.1 12 42.9 11.3 42.7 9.8C42.1 5.1 38 3.3 33.7 4.2C31.1 4.7 28.5 5.3 26 5.9C28.3 15.3 30.5 24.7 32.8 34.1C34.6 33.6 35.5 33.4 37.3 33ZM34.5 8.2C36.1 7.9 37.2 8.4 37.5 10.4C37.8 12.1 38 13 38.3 14.7C38.7 16.7 38 17.5 36.4 17.9C35.5 18.1 35 18.2 34.1 18.4C33.4 15.2 32.7 12 32 8.8C33.1 8.5 33.6 8.4 34.5 8.2ZM47.1 24.1C47.7 28.2 50.9 30.9 55.1 30.4C59.3 29.9 61.9 26.7 61.5 22.5C61.1 17.5 60.8 12.5 60.4 7.5C60.2 2.7 56.1 0.6 51.8 1C47.3 1.4 44.2 4.7 44.8 9.3C45.6 14.2 46.4 19.2 47.1 24.1ZM52.3 5.1C54 4.9 55.1 5.6 55.3 7.7C55.8 12.9 56.3 18.1 56.8 23.3C57 25.4 56.1 26.2 54.7 26.4C53.2 26.6 52.2 25.9 51.9 23.9C51.3 18.7 50.6 13.6 50 8.4C49.7 6.2 50.7 5.3 52.3 5.1ZM73.6 29C74.1 23.8 74.7 18.7 75.3 13.6C75.9 18.7 76.5 23.9 77 29C79 29 81.1 29.1 83.1 29.2C84.6 19.6 86.3 10 88.1 0.4C86.2 0.3 85.3 0.2 83.4 0.2C82.2 7.8 81.1 15.5 80.1 23.1C79.4 15.4 78.7 7.7 78 0C76.3 0 74.6 0 72.9 0C72.1 7.6 71.5 15.2 70.9 22.9C69.9 15.3 68.7 7.7 67.5 0.2C65.8 0.3 64 0.3 62.3 0.5C64.1 10.1 65.8 19.6 67.4 29.2C69.4 29.1 71.5 29 73.6 29ZM101.7 26.7C99 26.3 96.3 26 93.6 25.7C93.9 22.9 94.2 20.1 94.4 17.3C96.6 17.5 98.9 17.8 101.1 18.1C101.3 16.5 101.4 15.6 101.6 14C99.3 13.7 97 13.4 94.7 13.2C95 10.5 95.2 7.8 95.5 5.2C98.5 5.5 101.5 5.9 104.5 6.3C104.7 4.7 104.9 3.8 105.1 2.2C100.3 1.5 95.5 1 90.6 0.7C89.9 10.3 89.2 20 88.5 29.6C92.7 29.9 96.8 30.4 101 30.9C101.3 29.1 101.5 28.3 101.7 26.7ZM108.5 32C109.2 28.1 109.9 24.3 110.6 20.4C111.3 20.5 111.6 20.6 112.3 20.7C114.5 21.1 115.3 22.9 114.7 24.9C114.3 26.7 114.1 27.6 113.8 29.4C113.3 31.7 113.4 32.2 113.5 33C115.3 33.4 116.3 33.6 118.1 34C117.9 32.8 118.1 31.8 118.4 30.5C118.8 28.8 119 27.9 119.4 26.2C120.1 23.8 119.8 21 117.6 19.5C120.1 19 121.7 16.9 122.1 14.5C122.3 13.6 122.4 13.2 122.6 12.3C123.9 7.7 120.6 5 116.4 4.1C113.8 3.6 111.1 3.1 108.4 2.7C106.9 12.2 105.4 21.8 103.9 31.3C105.8 31.5 106.7 31.6 108.5 32ZM113 7.6C114 7.8 114.5 7.9 115.5 8.1C117.3 8.5 117.9 9.5 117.5 11.5C117.3 12.6 117.1 13.2 116.9 14.3C116.7 16.2 115.1 17.2 113.3 16.7C112.5 16.6 112.1 16.5 111.4 16.3C111.9 13.4 112.5 10.5 113 7.6ZM36.2 39.9V61.2L70.9 75L39.5 61.1L75 74.4L110.5 61.1L79.1 75L113.8 61.2V39.9C88.2 33.5 61.8 33.5 36.2 39.9ZM52.9 42.7H50V46.1H52.3V47.7H50V52.3H48.2V41.1H52.9V42.7ZM58.1 52.3H56.3V41.1H58.1V52.3ZM64.5 58.8H62.8V57.6C62.8 56.8 62.4 56.5 61.9 56.5C61.3 56.5 61 56.8 61 57.6V63.7C61 64.5 61.4 64.8 61.9 64.8C62.5 64.8 62.8 64.5 62.8 63.7V62H64.5V63.5C64.5 65.3 63.6 66.3 61.9 66.3C60.2 66.3 59.3 65.3 59.3 63.5V57.7C59.3 55.9 60.2 54.9 61.9 54.9C63.6 54.9 64.5 55.9 64.5 57.7V58.8ZM66.9 42.7H65V52.3H63.2V42.7H61.3V41.1H66.8V42.7H66.9ZM72.8 66.2H68.1V55H69.9V64.6H72.8V66.2ZM96.5 48.9H98.2V49.7C98.2 50.5 98.6 50.8 99.1 50.8C99.7 50.8 100 50.5 100 49.7C100 47.4 96.5 47 96.5 43.7C96.5 41.9 97.4 40.9 99.1 40.9C100.8 40.9 101.7 41.9 101.7 43.7V44.1H100V43.6C100 42.8 99.7 42.5 99.1 42.5C98.5 42.5 98.2 42.8 98.2 43.6C98.2 45.9 101.7 46.3 101.7 49.6C101.7 51.4 100.8 52.4 99.1 52.4C97.4 52.4 96.5 51.4 96.5 49.6V48.9ZM87.9 48.9H89.6V49.7C89.6 50.5 90 50.8 90.5 50.8C91 50.8 91.4 50.5 91.4 49.7C91.4 47.4 87.9 47 87.9 43.7C87.9 41.9 88.8 40.9 90.5 40.9C92.2 40.9 93.1 41.9 93.1 43.7V44.1H91.4V43.6C91.4 42.8 91.1 42.5 90.5 42.5C89.9 42.5 89.6 42.8 89.6 43.6C89.6 45.9 93.1 46.3 93.1 49.6C93.1 51.4 92.2 52.4 90.5 52.4C88.8 52.4 87.9 51.4 87.9 49.6V48.9ZM85.1 55H87.8C89.6 55 90.4 55.9 90.4 57.6V58C90.4 59.2 90 59.9 89.3 60.3C90.3 60.7 90.6 61.5 90.6 62.7V63.6C90.6 65.3 89.7 66.3 87.9 66.3H85.1V55ZM79.7 41.1H84.5V42.7H81.4V45.8H83.8V47.4H81.4V50.7H84.5V52.3H79.7V41.1ZM76.1 55H77.9V63.7C77.9 64.5 78.3 64.8 78.8 64.8C79.3 64.8 79.7 64.5 79.7 63.7V55H81.4V63.6C81.4 65.4 80.5 66.4 78.8 66.4C77.1 66.4 76.2 65.4 76.2 63.6V55H76.1ZM75.9 52.3H74L71.8 44.2V52.3H70.2V41.1H72.4L74.2 47.8V41.1H75.8V52.3H75.9ZM88.7 58.4V57.8C88.7 57 88.4 56.6 87.8 56.6H86.9V59.6H87.6C88.3 59.6 88.7 59.3 88.7 58.4ZM88.9 63.5V62.5C88.9 61.5 88.6 61.1 87.8 61.1H87V64.6H88C88.5 64.6 88.9 64.3 88.9 63.5Z" fill="black"></path></svg>