<svg xmlns="http://www.w3.org/2000/svg" width="123" height="83" viewBox="0 0 123 83" fill="none"><path d="M62.6 6.9C64.3 6.9 65.9 6.2 67.1 5.1C68.5 3.8 69.1 1.9 68.9 0C68.7 0 68.5 0 68.3 0C66.6 0 65 0.7 63.8 1.8C62.4 3.1 61.8 5 62 6.9C62.1 6.9 62.4 6.9 62.6 6.9ZM49.8 21C50.6 27 54.9 31.1 58.3 31.1C58.5 31.1 58.7 31.1 58.9 31.1C59.2 31.1 59.5 30.9 59.8 30.8C60.4 30.5 61.1 30.3 61.7 30.3C62.4 30.3 63 30.5 63.6 30.8C63.9 31 64.2 31.1 64.5 31.1C64.7 31.1 64.9 31.1 65.1 31.1C68.5 31.1 72.9 26.9 73.6 21L73.9 18.6C74.3 15.7 73.5 13 71.8 11C70.4 9.5 68.6 8.7 66.6 8.7C65.8 8.7 64.9 8.8 64.1 9.1L63.5 9.4C62.3 10 60.9 10 59.7 9.4L59 9.1C58.2 8.8 57.3 8.7 56.5 8.7C54.5 8.7 52.7 9.5 51.3 11C49.6 12.9 48.8 15.7 49.2 18.6L49.8 21ZM53.6 23.7C53.5 23.9 53.4 24 53.2 24.1C53.1 24.1 53 24.2 52.9 24.2C52.6 24.2 52.4 24 52.2 23.8C51.8 22.9 51.6 21.9 51.4 21C51.4 20.8 51.4 20.6 51.5 20.5C51.6 20.4 51.8 20.3 52 20.2H52.1C52.5 20.2 52.8 20.5 52.8 20.8C52.9 21.6 53.1 22.5 53.5 23.3C53.7 23.3 53.7 23.5 53.6 23.7ZM60.4 15.9L61.9 17.4L63.4 15.9C63.9 15.4 64.6 15.1 65.4 15.1C66.2 15.1 66.9 15.4 67.4 15.9C68.5 17 68.5 18.8 67.4 19.8L62.5 24.6C62.3 24.8 62.1 24.9 61.9 24.9C61.7 24.9 61.4 24.8 61.3 24.6L56.4 19.8C55.3 18.7 55.3 16.9 56.4 15.9C56.9 15.4 57.6 15.1 58.4 15.1C59.2 15.1 59.8 15.3 60.4 15.9ZM53.6 11.7C55.2 10.4 57.4 10 59.5 10.8C59.7 10.9 59.8 11 59.9 11.2C60 11.4 60 11.6 59.9 11.7C59.8 12 59.4 12.2 59 12C57.4 11.5 55.7 11.7 54.5 12.7C53 13.9 52.2 16.1 52.5 18.4C52.5 18.8 52.3 19.1 51.9 19.2H51.8C51.4 19.2 51.1 18.9 51.1 18.6C50.7 15.8 51.7 13.2 53.6 11.7ZM28.8 22.3C28.7 22.3 28.5 22.3 28.4 22.3H28.3V22.6H31.2L31.3 21.5H31V21.6C31 21.7 30.8 22.1 30.7 22.2C30.6 22.3 30.3 22.3 30.1 22.3C29.7 22.3 29.7 22.3 29.7 22V21.3H29.9C30.1 21.3 30.2 21.4 30.2 21.4C30.2 21.4 30.3 21.6 30.3 21.7V21.8H30.7V20.4H30.4V20.5C30.4 20.6 30.3 20.8 30.3 20.8C30.3 20.8 30.2 20.9 30 20.9H29.8V20H30C30.1 20 30.2 20 30.4 20C30.5 20 30.7 20.3 30.8 20.4V20.5H31.1V19.6H28.4V20H28.5C28.6 20 28.8 20 28.9 20.1C29 20.1 29 20.2 29 20.2V22.2C28.9 22.2 28.9 22.3 28.8 22.3ZM34.2 22.4C33.7 22.4 33.5 22.1 33.3 21.6V21.5H33V22.7H33.3L33.4 22.5C33.5 22.6 33.8 22.7 34.2 22.7C34.8 22.7 35.3 22.3 35.3 21.7C35.3 21.2 35 21 34.6 20.8C34.5 20.8 34.4 20.7 34.3 20.7C34.2 20.7 34.1 20.6 34 20.6C33.7 20.5 33.7 20.4 33.7 20.2C33.7 19.9 33.9 19.9 34 19.9C34.5 19.9 34.7 20.2 34.9 20.7V20.8H35.2V19.6H34.9L34.8 19.8C34.6 19.7 34.4 19.6 34.2 19.6C33.6 19.6 33.1 20 33.1 20.5C33.1 20.9 33.3 21.2 33.7 21.4C33.9 21.5 34 21.5 34.1 21.5C34.2 21.5 34.3 21.5 34.4 21.6C34.7 21.7 34.8 21.8 34.8 22C34.6 22.2 34.5 22.4 34.2 22.4ZM38.7 20C38.8 20 38.9 20 39 20C39.1 20 39.4 20.4 39.4 20.7V20.8H39.7V19.7H36.8V20.8H37.1V20.7C37.2 20.4 37.4 20 37.5 20C37.6 20 37.7 20 37.8 20V22.1L37.7 22.2C37.7 22.2 37.4 22.2 37.3 22.2H37.2V22.5H39.1V22.2H39C38.9 22.2 38.6 22.1 38.6 22.1L38.5 22L38.7 20ZM41.7 22.3C41.7 22.3 41.4 22.3 41.3 22.3H41.2V22.6H42.7C43.6 22.6 44.5 22.1 44.5 21.1C44.5 19.9 43.4 19.6 42.8 19.6H41.2V20H41.3C41.4 20 41.6 20 41.7 20.1L41.8 20.2V22.2C41.8 22.3 41.7 22.3 41.7 22.3ZM42.5 20H42.7C43.3 20 43.7 20.5 43.7 21.2C43.7 21.9 43.4 22.3 42.8 22.3C42.5 22.3 42.5 22.2 42.5 22.1V20ZM79.7 22.3C79.7 22.3 79.5 22.3 79.3 22.3H79.2V22.7H81.2V22.3H81.1C81 22.3 80.8 22.3 80.7 22.2C80.6 22.2 80.6 22.1 80.6 22V19.8C80.6 19.5 80.6 19.2 80.7 18.9V18.8H80.4C80.3 18.9 80 19 79.7 19C79.5 19 79.3 19 79.1 18.9L79 19L78.9 19.3H79C79.2 19.5 79.5 19.7 79.7 19.7H79.9V22.1C79.8 22.2 79.7 22.2 79.7 22.3ZM83.8 22.9C83.6 22.9 83.5 22.8 83.5 22.8V22.6C83.5 22.4 83.4 22.2 83.1 22.2C82.8 22.2 82.7 22.3 82.7 22.6C82.7 22.9 83 23.3 83.6 23.3C85 23.3 85.8 22 85.8 20.7C85.8 19 84.7 18.9 84.4 18.9C83.5 18.9 83 19.6 83 20.3C83 21.2 83.6 21.6 84.2 21.6C84.6 21.6 84.9 21.4 85.1 21.2C84.8 22.1 84.4 22.9 83.8 22.9ZM84.2 21.1C83.9 21.1 83.6 21 83.6 20.2C83.6 19.6 83.8 19.2 84.2 19.2C84.5 19.2 84.9 19.5 84.9 20.2C84.9 21 84.5 21.1 84.2 21.1ZM88.4 22.9C88.2 22.9 88.1 22.8 88.1 22.8V22.6C88.1 22.4 88 22.2 87.7 22.2C87.4 22.2 87.3 22.3 87.3 22.6C87.3 22.9 87.6 23.3 88.2 23.3C89.6 23.3 90.4 22 90.4 20.7C90.4 19 89.3 18.9 89 18.9C88.1 18.9 87.6 19.6 87.6 20.3C87.6 21.2 88.2 21.6 88.8 21.6C89.2 21.6 89.5 21.4 89.7 21.2C89.4 22.1 89.1 22.9 88.4 22.9ZM88.9 21.1C88.6 21.1 88.3 21 88.3 20.2C88.3 19.6 88.5 19.2 88.9 19.2C89.2 19.2 89.6 19.5 89.6 20.2C89.6 21 89.2 21.1 88.9 21.1ZM93.1 19.8C93.4 19.8 94.4 19.7 94.7 19V18.9L94.5 18.7H94.4C94.1 18.9 93.9 19 93.6 19C93.2 19 93 18.9 92.9 18.8H92.6L92.2 21L92.6 21.1V21C92.7 20.7 93 20.6 93.2 20.6C93.4 20.6 93.8 20.7 93.8 21.1C93.8 21.2 93.8 22.3 93 22.3C92.7 22.3 92.5 22.2 92.5 22.1C92.5 22 92.5 22 92.5 21.9C92.5 21.9 92.5 21.8 92.5 21.7C92.5 21.5 92.4 21.4 92.2 21.4C92 21.4 91.7 21.5 91.7 21.9C91.7 22.4 92.2 22.7 92.9 22.7C93.6 22.7 94.4 22.2 94.4 21.4C94.4 20.6 93.8 20.2 93.1 20.2C92.9 20.2 92.7 20.3 92.5 20.3L92.7 19.7C92.9 19.8 93.1 19.8 93.1 19.8ZM28.1 17.4H44.6C44.8 17.4 45 17.2 45 17C45 16.8 44.8 16.6 44.6 16.6H28.1C27.9 16.6 27.7 16.8 27.7 17C27.6 17.2 27.8 17.4 28.1 17.4ZM28.1 25.9H44.6C44.8 25.9 45 25.7 45 25.5C45 25.3 44.8 25.1 44.6 25.1H28.1C27.9 25.1 27.7 25.3 27.7 25.5C27.6 25.7 27.8 25.9 28.1 25.9ZM78.4 17.4H94.9C95.1 17.4 95.3 17.2 95.3 17C95.3 16.8 95.1 16.6 94.9 16.6H78.4C78.2 16.6 78 16.8 78 17C77.9 17.2 78.1 17.4 78.4 17.4ZM78.4 25.9H94.9C95.1 25.9 95.3 25.7 95.3 25.5C95.3 25.3 95.1 25.1 94.9 25.1H78.4C78.2 25.1 78 25.3 78 25.5C77.9 25.7 78.1 25.9 78.4 25.9ZM6.6 45.4H3.8V49.2H0V51.9H3.8V55.7H6.5V51.9H10.3V49.2H6.6V45.4ZM119.2 49.2V45.4H116.5V49.2H112.7V51.9H116.5V55.7H119.2V51.9H123V49.2H119.2ZM99.6 70.8H21.6C21.4 70.8 21.1 71 21.1 71.2C21.1 71.4 21.3 71.6 21.6 71.6H99.6C99.8 71.6 100.1 71.4 100.1 71.2C100.1 71 99.9 70.8 99.6 70.8ZM99.6 82.1H21.6C21.4 82.1 21.1 82.3 21.1 82.5C21.1 82.7 21.3 82.9 21.6 82.9H99.6C99.8 82.9 100.1 82.7 100.1 82.5C100.1 82.3 99.9 82.1 99.6 82.1ZM22.4 62.5L21.9 62.7H21.7C21.7 62.7 21.7 62.7 21.6 62.6C21.6 62.6 21.5 62.4 21.5 62.1V52.4H26.1V62.1C26.1 62.4 26 62.6 26 62.6V62.7H25.9L25.4 62.5V64.3H30.4V62.5L29.9 62.7H29.7C29.7 62.7 29.7 62.7 29.6 62.6C29.6 62.6 29.5 62.4 29.5 62.1V41.1C29.5 40.8 29.6 40.6 29.6 40.5L29.7 40.4H29.8C29.8 40.4 29.9 40.4 30 40.4L30.5 40.5V38.8H25.5V40.5L26 40.4C26.1 40.4 26.1 40.4 26.2 40.4C26.2 40.4 26.3 40.5 26.3 40.6C26.3 40.6 26.4 40.8 26.4 41.1V50.8H21.8V41.1C21.8 40.8 21.9 40.6 21.9 40.5L22 40.4H22.2L22.7 40.5V38.8H17.8V40.5L18.3 40.4C18.4 40.4 18.4 40.4 18.5 40.4C18.5 40.4 18.6 40.5 18.7 40.6C18.7 40.6 18.8 40.8 18.8 41.1V62.1C18.8 62.4 18.7 62.6 18.7 62.6L18.6 62.7H18.4L17.9 62.5V64.3H22.8V62.5H22.4ZM39 40.3C39.4 40.3 39.6 40.4 39.8 40.6C40 40.9 40.2 41.2 40.3 41.5C40.4 41.9 40.5 42.3 40.5 42.8V43.1H42.1V38.7H31.7V40.4L32.2 40.3C32.3 40.3 32.3 40.3 32.4 40.3C32.4 40.3 32.5 40.4 32.6 40.5C32.6 40.5 32.7 40.7 32.7 41V62C32.7 62.3 32.6 62.5 32.6 62.5L32.5 62.6H32.3L31.8 62.4V64.2H42.3V59.8H40.7V60.1C40.7 60.6 40.6 61 40.5 61.4C40.4 61.7 40.2 62 40 62.2C39.8 62.4 39.6 62.5 39.2 62.5H35.9V52.4H38C38.2 52.4 38.3 52.5 38.4 52.5C38.5 52.6 38.6 52.8 38.7 53C38.8 53.2 38.8 53.4 38.8 53.7V54.1H40.3V49.1H38.8V49.5C38.8 49.8 38.8 50 38.7 50.2C38.6 50.4 38.6 50.5 38.4 50.6C38.3 50.7 38.2 50.7 38 50.7H35.9V40.3H39ZM44.6 61.8C44.6 61.9 44.6 62 44.6 62V62.1C44.5 62.4 44.4 62.5 44.4 62.6C44.3 62.7 44.2 62.8 44.1 62.8C44 62.8 43.9 62.8 43.9 62.8C43.8 62.8 43.7 62.8 43.7 62.8L43.3 62.7V64.4H47.4V62.7L47 62.8C46.9 62.8 46.8 62.8 46.8 62.8H46.7C46.7 62.8 46.6 62.8 46.6 62.7V62.6C46.6 62.5 46.6 62.4 46.6 62.3C46.6 62.3 46.6 62.2 46.6 62C46.6 61.8 46.7 61.5 46.7 61.2C46.8 60.5 47 59.6 47.2 58.4H51.1C51.3 59.5 51.4 60.4 51.5 61.2C51.6 61.6 51.6 61.9 51.6 62.1C51.6 62.2 51.6 62.3 51.6 62.3V62.4C51.6 62.5 51.6 62.6 51.6 62.6C51.6 62.7 51.6 62.8 51.6 62.8C51.5 62.9 51.5 62.9 51.5 62.9H51.4C51.3 62.9 51.3 62.9 51.2 62.9L50.8 62.8V64.5H56.7V62.8L56.3 62.9C56.2 62.9 56.1 62.9 56 62.9C55.9 62.9 55.9 62.9 55.8 62.9C55.7 62.9 55.6 62.8 55.5 62.7C55.4 62.6 55.4 62.5 55.3 62.2C55.3 62.1 55.3 62.1 55.2 61.9C55.2 61.7 55.1 61.5 55.1 61.2C55 60.5 54.8 59.7 54.7 58.6C54.5 57.5 54.3 56.3 54.1 55C53.9 53.6 53.7 52.2 53.4 50.8C52.9 47.5 52.3 43.7 51.6 39.5V39.2H49.2L47 50.9C46.7 52.3 46.5 53.7 46.2 55.1C45.9 56.5 45.7 57.7 45.5 58.8C45.3 59.9 45.1 60.7 45 61.4C44.7 61.3 44.6 61.6 44.6 61.8ZM47.7 53.9C47.9 52.8 48.1 51.7 48.3 50.6C48.5 49.5 48.7 48.4 48.9 47.4C49 47.1 49 46.8 49.1 46.5C49.1 46.8 49.2 47.1 49.2 47.4C49.4 48.4 49.6 49.5 49.7 50.6C49.9 51.7 50.1 52.8 50.2 53.9C50.4 54.8 50.5 55.7 50.6 56.5H47.2C47.4 55.7 47.5 54.9 47.7 53.9ZM57.8 62.6L57.7 62.7H57.5L57 62.5V64.3H67.2V59.9H65.6V60.2C65.6 60.7 65.5 61.1 65.4 61.5C65.3 61.8 65.1 62.1 64.9 62.3C64.7 62.5 64.5 62.6 64 62.6H61V41.1C61 40.8 61.1 40.6 61.1 40.5L61.2 40.4H61.3C61.3 40.4 61.4 40.4 61.5 40.4L62 40.5V38.8H57V40.5L57.5 40.4C57.6 40.4 57.6 40.4 57.7 40.4C57.7 40.4 57.8 40.5 57.9 40.6C57.9 40.6 58 40.8 58 41.1V62.1C57.9 62.3 57.8 62.5 57.8 62.6ZM76 40.3C76.4 40.3 76.6 40.4 76.8 40.6C77 40.9 77.2 41.2 77.3 41.5C77.4 41.9 77.5 42.3 77.5 42.9V43.2H79.1V38.8H67.4V43.2H69.1V42.9C69.1 42.4 69.2 41.9 69.3 41.5C69.4 41.2 69.5 40.9 69.8 40.7C70 40.5 70.2 40.4 70.6 40.4H71.7V62.1C71.7 62.4 71.6 62.6 71.6 62.6L71.5 62.7H71.2L70.7 62.5V64.3H75.7V62.5L75.2 62.7H74.9C74.9 62.7 74.9 62.7 74.8 62.6C74.8 62.6 74.7 62.4 74.7 62.1V40.3H76ZM91.9 40.5L92 40.4H92.1C92.1 40.4 92.2 40.4 92.3 40.4L92.8 40.5V38.8H87.8V40.5L88.3 40.4C88.4 40.4 88.4 40.4 88.5 40.4C88.5 40.4 88.6 40.5 88.6 40.6C88.6 40.6 88.7 40.8 88.7 41.1V50.8H84V41.1C84 40.8 84.1 40.6 84.1 40.5L84.2 40.4H84.4L84.9 40.5V38.8H80V40.5L80.5 40.4C80.6 40.4 80.6 40.4 80.7 40.4C80.7 40.4 80.8 40.5 80.9 40.6C80.9 40.6 81 40.8 81 41.1V62.1C81 62.4 80.9 62.6 80.9 62.6L80.8 62.7H80.6L80 62.5V64.3H84.9V62.5L84.4 62.7H84.2C84.2 62.7 84.2 62.7 84.1 62.6C84.1 62.6 84 62.4 84 62.1V52.4H88.6V62.1C88.6 62.4 88.5 62.6 88.5 62.6L88.4 62.7H88.3L87.8 62.5V64.3H92.8V62.5L92.3 62.7H92.1C92.1 62.7 92.1 62.7 92 62.6C92 62.6 91.9 62.4 91.9 62.1V41.1C91.8 40.8 91.9 40.6 91.9 40.5ZM103.5 40.5L104 40.4C104.1 40.4 104.1 40.4 104.2 40.4V40.5C104.2 40.6 104.2 40.8 104.1 41V41.1C104.1 41.1 104.1 41.2 104 41.4C103.9 41.6 103.9 41.8 103.8 42.1C103.6 42.7 103.3 43.6 103 44.6C102.7 45.6 102.3 46.8 101.8 48.2C101.5 49.1 101.2 50.1 100.9 51C100.7 50.1 100.4 49.1 100.2 48.2C99.9 46.9 99.6 45.7 99.3 44.6C99 43.6 98.8 42.7 98.6 42.1C98.5 41.8 98.4 41.5 98.4 41.4C98.4 41.3 98.4 41.3 98.4 41.2C98.3 41 98.3 40.9 98.3 40.8V40.7C98.3 40.6 98.4 40.6 98.4 40.6C98.4 40.6 98.5 40.6 98.6 40.6L99.1 40.7V39H93.9V40.7L94.4 40.6H94.6C94.7 40.6 94.7 40.6 94.8 40.6C94.9 40.6 95 40.7 95.1 40.8C95.2 40.9 95.3 41.1 95.3 41.4C95.3 41.5 95.3 41.6 95.4 41.8C95.5 42 95.5 42.3 95.6 42.7C95.8 43.5 96.1 44.6 96.4 45.8C96.7 47.1 97.1 48.5 97.5 50C97.9 51.5 98.3 53 98.6 54.5V62.3C98.6 62.6 98.5 62.8 98.5 62.9H98.3L97.8 62.7V64.5H102.7V62.7L102.2 62.9H102C102 62.9 102 62.9 101.9 62.8C101.9 62.8 101.8 62.6 101.8 62.3V54.5C102.3 53 102.8 51.5 103.3 50C103.8 48.5 104.3 47.1 104.7 45.8C105.1 44.5 105.4 43.5 105.7 42.7C105.8 42.3 105.9 42 106 41.8C106 41.7 106.1 41.6 106.1 41.5V41.4C106.2 41.1 106.3 40.9 106.4 40.8C106.5 40.7 106.6 40.6 106.7 40.6C106.8 40.6 106.8 40.6 106.9 40.6H107L107.5 40.8V39.1H103.7V40.5H103.5ZM22.4 78.3C22.4 78.3 22.3 78.3 22.2 78.3C22.1 78.3 22 78.3 21.9 78.3H21.7V79H24.4V78.4H24.2C24.1 78.4 24 78.4 23.9 78.4H23.5V77H23.8C24.1 77 24.2 77.1 24.2 77.1C24.2 77.1 24.3 77.2 24.3 77.3C24.3 77.4 24.3 77.5 24.4 77.6V77.8H25V75.7C25 75.8 25.1 75.8 25.1 75.9V76H25.7V74.5H21.6V75.1H21.8C21.9 75.1 22.2 75.2 22.3 75.2H22.4V78.3ZM23.7 75.2H24.2C24.4 75.2 24.6 75.2 24.7 75.2C24.7 75.2 24.9 75.3 25 75.4C25.1 75.5 25.1 75.6 25.2 75.7H24.6V75.9C24.6 76 24.6 76.1 24.5 76.2V76.3C24.5 76.3 24.3 76.4 24.1 76.4H23.8V75.2H23.7ZM26.8 78.3C26.8 78.3 26.7 78.3 26.6 78.3C26.5 78.3 26.4 78.3 26.3 78.3H26.1V79H28.8V78.4H28.6C28.5 78.4 28.4 78.4 28.3 78.4H28V75.3C28.1 75.3 28.4 75.2 28.5 75.2H28.7V74.6H26V75.2H26.2C26.3 75.2 26.6 75.3 26.7 75.3H26.8V78.3ZM35.3 74.5H29V76.2H29.5V76.1C29.6 75.9 29.7 75.7 29.8 75.5C29.9 75.4 29.9 75.3 30 75.3L30.1 75.2C30.2 75.2 30.4 75.2 30.5 75.2V78.3H30.4C30.3 78.3 29.9 78.4 29.8 78.4H29.6V79H32.5V78.4H32.3C32.3 78.4 32.1 78.4 32 78.4C31.9 78.4 31.9 78.4 31.8 78.4H31.7C31.6 78.4 31.6 78.4 31.6 78.3V75.3C31.8 75.3 31.9 75.3 32 75.3L32.1 75.4C32.3 75.6 32.5 76 32.6 76.3V76.4H33.2V75.3H33.3C33.4 75.3 33.6 75.3 33.7 75.4C33.8 75.4 34 75.5 34 75.5C34.1 75.5 34.1 75.7 34.1 75.8V77.7C34.1 77.9 34.1 78.1 34.1 78.2C34.1 78.3 34 78.4 34 78.4C34 78.4 33.8 78.5 33.7 78.5C33.6 78.5 33.4 78.6 33.4 78.6H33.2V79H35.8V78.4H35.6C35.6 78.4 35.4 78.4 35.2 78.3C35.1 78.3 35 78.3 35 78.2H34.9C34.9 78.2 34.8 78.1 34.8 78C34.8 77.9 34.8 77.7 34.8 77.5V76L37.1 79H37.8V75.9C37.8 75.7 37.8 75.6 37.8 75.4C37.8 75.3 37.9 75.2 37.9 75.2H38C38.1 75.2 38.4 75.1 38.5 75.1H38.7V74.5H36.1V75.1H36.3C36.4 75.1 36.5 75.1 36.7 75.2C36.8 75.2 37 75.3 37 75.3C37 75.3 37.1 75.3 37.1 75.5C37.1 75.6 37.1 75.8 37.1 76V77.3L35.3 74.5ZM39.8 78.3C39.7 78.3 39.6 78.4 39.5 78.4C39.4 78.4 39.3 78.4 39.2 78.4H39V79H43.3V78.8L43.4 77.3H42.8V77.4C42.8 77.5 42.7 77.6 42.6 77.8C42.5 78 42.4 78.1 42.3 78.2C42.3 78.2 42.2 78.3 42 78.3C41.8 78.3 41.6 78.3 41.4 78.3C41.1 78.3 41 78.3 40.9 78.2V78.1C40.9 78.1 40.9 78 40.9 77.9V76.9H41.1C41.4 76.9 41.4 77 41.5 77C41.5 77 41.6 77.1 41.6 77.2C41.6 77.3 41.7 77.4 41.7 77.5V77.7H42.3V75.6H41.7V75.8C41.7 75.9 41.7 76 41.6 76.1C41.6 76.2 41.5 76.3 41.5 76.3L41.4 76.4C41.3 76.4 41.3 76.4 41.1 76.4H41V75.2H41.5C41.7 75.2 41.9 75.2 42 75.2C42.1 75.2 42.2 75.3 42.3 75.5C42.4 75.6 42.5 75.8 42.5 75.8V75.9H43.1V74.5H39V75.1H39.2C39.3 75.1 39.4 75.1 39.5 75.1C39.6 75.1 39.7 75.1 39.7 75.2L39.8 75.3V78.3ZM45.8 78.4C45.4 78.4 45.2 78.3 45 78.1C44.8 77.9 44.7 77.6 44.6 77.3V77.2H44L44.1 79.1H44.6L44.8 78.9C45 79 45.4 79.2 45.9 79.2C46.4 79.2 46.8 79 47.1 78.8C47.4 78.5 47.6 78.2 47.6 77.7C47.6 77.4 47.5 77.1 47.3 76.9C47.1 76.7 46.9 76.5 46.6 76.4C46.3 76.3 46 76.2 45.7 76.1C45.5 76 45.4 75.9 45.3 75.9C45.2 75.8 45.2 75.7 45.2 75.6C45.2 75.4 45.3 75.3 45.4 75.3C45.5 75.2 45.6 75.2 45.7 75.2C46.1 75.2 46.3 75.3 46.5 75.5C46.7 75.7 46.8 76 46.9 76.3V76.4H47.5L47.4 74.6H46.9L46.7 74.8C46.4 74.7 46.1 74.6 45.8 74.5C45.4 74.5 45 74.6 44.7 74.9C44.4 75.1 44.2 75.5 44.2 75.9C44.2 76.2 44.3 76.5 44.4 76.7C44.5 76.9 44.8 77.1 45 77.2C45.4 77.4 45.6 77.4 46 77.5C46.2 77.6 46.4 77.7 46.4 77.7C46.5 77.8 46.5 77.8 46.5 78C46.5 78.2 46.4 78.3 46.4 78.4C46.1 78.4 46 78.4 45.8 78.4ZM49.8 78.4C49.4 78.4 49.2 78.3 49 78.1C48.8 77.9 48.7 77.6 48.6 77.3V77.2H48L48.1 79.1H48.6L48.8 78.9C49 79 49.4 79.2 49.9 79.2C50.4 79.2 50.8 79 51.1 78.8C51.4 78.5 51.6 78.2 51.6 77.7C51.6 77.4 51.5 77.1 51.3 76.9C51.1 76.7 50.9 76.5 50.6 76.4C50.3 76.3 50 76.2 49.7 76.1C49.5 76 49.4 75.9 49.3 75.9C49.2 75.8 49.2 75.7 49.2 75.6C49.2 75.4 49.3 75.3 49.4 75.3C49.5 75.2 49.6 75.2 49.7 75.2C50.1 75.2 50.3 75.3 50.5 75.5C50.7 75.7 50.8 76 50.9 76.3V76.4H51.5L51.4 74.6H50.9L50.7 74.8C50.4 74.7 50.1 74.6 49.8 74.5C49.4 74.5 49 74.6 48.7 74.9C48.4 75.1 48.2 75.5 48.2 75.9C48.2 76.2 48.3 76.5 48.4 76.7C48.5 76.9 48.8 77.1 49 77.2C49.4 77.4 49.6 77.4 50 77.5C50.2 77.6 50.4 77.7 50.4 77.7C50.5 77.8 50.5 77.8 50.5 78C50.5 78.2 50.4 78.3 50.4 78.4C50.2 78.4 50.1 78.4 49.8 78.4ZM54.7 78.3C54.7 78.3 54.6 78.3 54.5 78.3C54.4 78.3 54.3 78.3 54.2 78.3H54V79H56.7V78.4H56.5C56.4 78.4 56.3 78.4 56.2 78.4H55.8V77H56.1C56.4 77 56.5 77.1 56.5 77.1C56.5 77.1 56.6 77.2 56.6 77.3C56.6 77.4 56.6 77.5 56.7 77.6V77.8H57.3V75.7C57.3 75.8 57.4 75.8 57.4 75.9V76H58V74.5H54V75.1H54.2C54.3 75.1 54.6 75.2 54.7 75.2H54.8V75.3L54.7 78.3ZM55.9 75.2H56.4C56.6 75.2 56.8 75.2 56.9 75.2C56.9 75.2 57.1 75.3 57.2 75.4C57.3 75.5 57.3 75.6 57.4 75.7H56.8V75.9C56.8 76 56.8 76.1 56.7 76.2V76.3C56.7 76.3 56.5 76.4 56.3 76.4H56V75.2H55.9ZM62.5 75.1C62 74.6 61.4 74.4 60.8 74.4C60.1 74.4 59.6 74.6 59.1 75.1C58.6 75.5 58.4 76.1 58.4 76.8C58.4 77.5 58.7 78.1 59.2 78.5C59.7 78.9 60.2 79.1 60.8 79.1C61.5 79.1 62.1 78.9 62.5 78.5C63 78 63.2 77.4 63.2 76.7C63.2 76.1 63 75.5 62.5 75.1ZM61.6 78C61.4 78.3 61.2 78.4 60.8 78.4C60.4 78.4 60.2 78.2 60 77.9C59.8 77.6 59.7 77.2 59.7 76.7C59.7 76.1 59.8 75.7 60 75.4C60.2 75.1 60.4 75 60.8 75C61.2 75 61.5 75.2 61.6 75.5C61.8 75.8 61.9 76.2 61.9 76.7C61.9 77.3 61.8 77.7 61.6 78ZM67.8 75.1C67.3 74.6 66.7 74.4 66.1 74.4C65.4 74.4 64.9 74.6 64.4 75.1C63.9 75.5 63.7 76.1 63.7 76.8C63.7 77.5 64 78.1 64.5 78.5C65 78.9 65.5 79.1 66.1 79.1C66.8 79.1 67.4 78.9 67.8 78.5C68.3 78 68.5 77.4 68.5 76.7C68.5 76.1 68.2 75.5 67.8 75.1ZM66.9 78C66.7 78.3 66.5 78.4 66.1 78.4C65.7 78.4 65.5 78.2 65.3 77.9C65.1 77.6 65 77.2 65 76.7C65 76.1 65.1 75.7 65.3 75.4C65.5 75.1 65.7 75 66.1 75C66.5 75 66.8 75.2 66.9 75.5C67.1 75.8 67.2 76.2 67.2 76.7C67.2 77.3 67.1 77.7 66.9 78ZM69.6 78.3C69.5 78.3 69.4 78.4 69.3 78.4C69.2 78.4 69.1 78.4 69 78.4H68.8V79H71.1C71.7 79 72.4 78.8 72.9 78.5C73.4 78.1 73.8 77.6 73.8 76.8C73.8 75.9 73.4 75.3 72.9 75C72.4 74.7 71.8 74.5 71.3 74.5H68.9V75.1H69.1C69.2 75.1 69.5 75.1 69.6 75.2H69.7V75.3L69.6 78.3ZM70.8 75.2C70.9 75.2 71 75.2 71 75.2C71.4 75.2 71.8 75.4 72 75.6C72.2 75.9 72.4 76.3 72.4 76.8C72.4 77.3 72.3 77.7 72.1 77.9C71.9 78.2 71.6 78.3 71.1 78.3C70.9 78.3 70.8 78.3 70.8 78.2C70.8 78.2 70.7 78.1 70.7 78V75.2H70.8ZM78.3 78.4C77.9 78.4 77.7 78.3 77.5 78.1C77.3 77.9 77.2 77.6 77.1 77.3V77.2H76.5L76.6 79.1H77L77.2 78.9C77.4 79 77.8 79.2 78.3 79.2C78.8 79.2 79.2 79 79.5 78.8C79.8 78.5 80 78.2 80 77.7C80 77.4 79.9 77.1 79.7 76.9C79.5 76.7 79.3 76.5 79 76.4C78.7 76.3 78.4 76.2 78.1 76.1C77.9 76 77.8 75.9 77.7 75.9C77.6 75.8 77.6 75.7 77.6 75.6C77.6 75.4 77.7 75.3 77.8 75.3C77.9 75.2 78 75.2 78.1 75.2C78.5 75.2 78.7 75.3 78.9 75.5C79.1 75.7 79.2 76 79.3 76.3V76.4H79.9L79.8 74.6H79.3L79 74.7C78.7 74.6 78.4 74.5 78.1 74.4C77.7 74.4 77.3 74.5 77 74.8C76.7 75 76.5 75.4 76.5 75.8C76.5 76.1 76.6 76.4 76.7 76.6C76.8 76.8 77.1 77 77.3 77.1C77.7 77.3 77.9 77.3 78.3 77.4C78.5 77.5 78.7 77.6 78.7 77.6C78.8 77.7 78.8 77.7 78.8 77.9C78.8 78.1 78.7 78.2 78.7 78.3C78.7 78.4 78.5 78.4 78.3 78.4ZM83.4 75.2L83.5 75.3C83.7 75.5 83.9 75.9 84 76.2V76.3H84.6V74.6H80.2V76.3H80.7V76.2C80.8 76 80.9 75.8 81 75.6C81.1 75.5 81.1 75.4 81.2 75.4L81.3 75.3C81.4 75.3 81.6 75.3 81.7 75.3V78.4H81.6C81.5 78.4 81.1 78.5 81 78.5H80.8V79H83.7V78.4H83.5C83.5 78.4 83.3 78.4 83.2 78.4C83.1 78.4 83.1 78.4 83 78.4H82.9C82.8 78.4 82.8 78.4 82.8 78.3V75.3C83.2 75.2 83.3 75.2 83.4 75.2ZM89 75.1C88.5 74.6 87.9 74.4 87.3 74.4C86.6 74.4 86.1 74.6 85.6 75.1C85.1 75.5 84.9 76.1 84.9 76.8C84.9 77.5 85.2 78.1 85.7 78.5C86.2 78.9 86.7 79.1 87.3 79.1C88 79.1 88.6 78.9 89 78.5C89.5 78 89.7 77.4 89.7 76.7C89.6 76.1 89.4 75.5 89 75.1ZM88.1 78C87.9 78.3 87.7 78.4 87.3 78.4C86.9 78.4 86.7 78.2 86.5 77.9C86.3 77.6 86.2 77.2 86.2 76.7C86.2 76.1 86.3 75.7 86.5 75.4C86.7 75.1 86.9 75 87.3 75C87.7 75 88 75.2 88.1 75.5C88.3 75.8 88.4 76.2 88.4 76.7C88.3 77.3 88.2 77.7 88.1 78ZM90.8 78.3C90.7 78.3 90.6 78.4 90.5 78.4C90.4 78.4 90.3 78.4 90.2 78.4H90V79H92.6V78.4H92.4C92.3 78.4 92.2 78.4 92.1 78.4C92 78.4 91.9 78.4 91.9 78.4H91.8V77.2H91.9C92.2 77.2 92.5 77.4 92.7 77.8C92.9 78.2 93 78.5 93.1 78.9V79H99.2V78.8L99.3 77.3H99V77.4C99 77.5 98.9 77.6 98.8 77.8C98.7 78 98.6 78.1 98.5 78.2C98.5 78.2 98.4 78.3 98.2 78.3C98 78.3 97.8 78.3 97.6 78.3C97.3 78.3 97.2 78.3 97.1 78.2V78.1C97.1 78.1 97.1 78 97.1 77.9V76.9H97.3C97.6 76.9 97.6 77 97.7 77C97.7 77 97.8 77.1 97.8 77.2C97.8 77.3 97.9 77.4 97.9 77.5V77.7H98.5V75.6H97.9V75.8C97.9 75.9 97.9 76 97.8 76.1C97.8 76.2 97.7 76.3 97.7 76.3L97.6 76.4C97.5 76.4 97.5 76.4 97.3 76.4H97.1V75.2H97.6C97.8 75.2 98 75.2 98.1 75.2C98.2 75.2 98.3 75.3 98.4 75.5C98.5 75.6 98.6 75.8 98.6 75.8V75.9H99.2V74.5H95.1V75.1H95.3C95.4 75.1 95.5 75.1 95.6 75.1C95.7 75.1 95.8 75.1 95.8 75.2L95.9 75.3V78.4H95.8C95.8 78.4 95.7 78.4 95.6 78.4C95.5 78.4 95.4 78.4 95.3 78.4H95C95 78.4 94.7 78.4 94.6 78.4C94.5 78.4 94.5 78.4 94.5 78.3C94.5 78.3 94.4 78.2 94.4 78.1C94.4 78 94.2 77.7 94.1 77.5C93.9 77.1 93.7 76.9 93.4 76.8C93.5 76.7 93.7 76.7 93.8 76.6C94.1 76.4 94.3 76.1 94.3 75.7C94.3 75.3 94.1 75 93.8 74.8C93.5 74.6 93.1 74.5 92.8 74.5H90.2V75.1H90.4C90.5 75.1 90.8 75.2 90.9 75.2H91V75.3L90.8 78.3ZM92 75.2H92.3C92.5 75.2 92.7 75.2 92.8 75.3C92.9 75.4 93 75.5 93 75.8C93 76.1 92.9 76.2 92.8 76.3C92.7 76.4 92.5 76.5 92.2 76.5H92V75.2Z" fill="black"></path></svg>