<svg xmlns="http://www.w3.org/2000/svg" width="108" height="91" viewBox="0 0 108 91" fill="none"><path d="M44.9 39.9003H53.8V56.1003L61.6 33.7003H52.9V16.1003L44.9 39.9003ZM74.9 34.2003C74.3 28.9003 71.9 24.3003 68.4 20.9003C69.7 14.8003 72.3 8.90032 70.3 5.10032C67.8 0.500319 53.8 1.00032 53.4 1.00032C53 1.00032 39 0.500319 36.4 5.20032C34.5 8.80032 36.8 14.4003 38.1 20.2003C39.1 19.7003 40.8 18.8003 40.8 18.8003C40.8 18.8003 40.8 18.8003 40.8 18.9003C40 19.5003 39.3 20.1003 38.6 20.7003C33.7 25.3003 31 32.1003 31.9 39.4003C33.1 49.6003 40.9 57.4003 50.5 58.7003L51.7 61.7003V42.2003H41.4L51.2 14.8003C51.1 14.8003 51 14.8003 50.9 14.8003C47.8 15.2003 44.9 16.2003 42.3 17.8003C42.2 17.9003 42.1 18.0003 41.9 18.1003C41 14.3003 40.6 8.90032 42 7.40032C44.2 5.00032 50.3 9.30032 53.4 9.30032C56.5 9.30032 62.6 5.00032 64.8 7.40032C66.1 8.90032 65.8 14.3003 64.9 18.1003C64.8 18.0003 64.7 17.9003 64.5 17.8003C62 16.3003 59.1 15.2003 56.1 14.9003L55.2 12.4003V31.0003H65.2L55.3 58.8003C55.5 58.8003 55.8 58.7003 56 58.7003C67.8 57.2003 76.3 46.3003 74.9 34.2003ZM42.7 20.2003C30.8 41.3003 41.1 51.9003 42.5 53.3003C42.6 53.4003 42.6 53.4003 42.7 53.5003C42.7 53.5003 42.6 53.4003 42.5 53.3003C33.4 45.4003 36.3 32.0003 36.3 32.0003C33.7 36.5003 34.3 42.8003 34.3 42.8003C31.7 27.7003 42.7 20.2003 42.7 20.2003ZM40.2 5.00032C46.8 1.60032 54.7 3.90032 54.7 3.90032C46.4 2.80032 40.2 5.00032 40.2 5.00032ZM61.6 54.6003C74.3 42.9003 69 28.4003 69 28.4003C77.9 44.9003 61.6 54.6003 61.6 54.6003ZM2.4 78.3003H6.7V76.1003H2.4V73.1003H7.8V70.9003H0V83.3003H8.1V81.1003H2.4V78.3003ZM18.2 70.9003V79.3003L12.8 70.9003H10.4V83.3003H12.8V75.1003L18.2 83.3003H20.7V70.9003H18.2ZM31.4 81.1003H25.6V78.2003H30V76.0003H25.7V73.0003H31V70.8003H23.2V83.2003H31.3V81.1003H31.4ZM39.9 78.8003C40.4 78.6003 40.9 78.4003 41.2 78.0003C41.6 77.7003 41.9 77.3003 42.1 76.8003C42.3 76.3003 42.4 75.7003 42.4 75.1003C42.4 74.5003 42.3 73.9003 42.1 73.5003C41.9 73.0003 41.7 72.6003 41.3 72.2003C41 71.8003 40.5 71.5003 40 71.3003C39.4 71.1003 38.8 71.0003 38.1 71.0003H33.5V83.4003H35.9V79.2003H37.3L40 83.4003H42.9L39.9 78.8003ZM37.6 76.9003H35.9V73.1003H37.7C38.4 73.1003 38.9 73.3003 39.3 73.6003C39.7 73.9003 39.9 74.4003 39.9 75.0003C39.9 75.6003 39.7 76.0003 39.3 76.4003C38.9 76.8003 38.3 76.9003 37.6 76.9003ZM54.9 76.6003H49.8V78.7003H52.5V80.5003C51.8 81.0003 50.9 81.2003 50 81.2003C49.3 81.2003 48.6 81.0003 48 80.7003C47.4 80.3003 47 79.9003 46.7 79.2003C46.4 78.6003 46.3 77.9003 46.3 77.1003C46.3 76.5003 46.4 75.9003 46.6 75.4003C46.8 74.9003 47 74.5003 47.4 74.1003C47.7 73.8003 48.1 73.5003 48.5 73.3003C48.9 73.1003 49.4 73.0003 49.9 73.0003C51.1 73.0003 52.2 73.4003 53 74.3003L54.7 72.8003C54.1 72.1003 53.4 71.6003 52.5 71.2003C51.6 70.8003 50.8 70.7003 49.9 70.7003C49 70.7003 48.1 70.9003 47.3 71.2003C46.5 71.5003 45.9 72.0003 45.4 72.5003C44.9 73.1003 44.5 73.7003 44.2 74.5003C43.9 75.3003 43.8 76.1003 43.8 77.0003C43.8 78.0003 44 78.9003 44.3 79.6003C44.6 80.4003 45.1 81.1003 45.6 81.6003C46.2 82.1003 46.8 82.5003 47.6 82.8003C48.4 83.1003 49.2 83.2003 50 83.2003C50.9 83.2003 51.8 83.1003 52.7 82.8003C53.6 82.5003 54.3 82.2003 54.8 81.7003V76.6003H54.9ZM63.5 70.9003L61 75.5003L58.5 71.0003H55.7L59.7 77.9003V83.3003H62.1V77.9003L66.2 71.0003H63.5V70.9003ZM82.8 76.6003H77.7V78.7003H80.4V80.5003C79.7 81.0003 78.8 81.2003 77.9 81.2003C77.2 81.2003 76.5 81.0003 75.9 80.7003C75.3 80.3003 74.9 79.9003 74.6 79.2003C74.3 78.6003 74.2 77.9003 74.2 77.1003C74.2 76.5003 74.3 75.9003 74.5 75.4003C74.7 74.9003 74.9 74.5003 75.3 74.1003C75.6 73.8003 76 73.5003 76.4 73.3003C76.8 73.1003 77.3 73.0003 77.8 73.0003C79 73.0003 80.1 73.4003 80.9 74.3003L82.6 72.8003C82 72.1003 81.3 71.6003 80.4 71.2003C79.5 70.8003 78.7 70.7003 77.8 70.7003C76.9 70.7003 76 70.9003 75.2 71.2003C74.4 71.5003 73.8 72.0003 73.3 72.5003C72.8 73.1003 72.4 73.7003 72.1 74.5003C71.8 75.3003 71.7 76.1003 71.7 77.0003C71.7 78.0003 71.9 78.9003 72.2 79.6003C72.5 80.4003 73 81.1003 73.5 81.6003C74.1 82.1003 74.7 82.5003 75.5 82.8003C76.3 83.1003 77.1 83.2003 77.9 83.2003C78.8 83.2003 79.7 83.1003 80.6 82.8003C81.5 82.5003 82.2 82.2003 82.7 81.7003V76.6003H82.8ZM88.9 75.5003L86.4 71.0003H83.6L87.6 77.9003V83.3003H90V77.9003L94.1 71.0003H91.3L88.9 75.5003ZM105.6 70.9003L101.9 77.9003L98.2 70.9003H95.8V83.3003H98V75.6003L101 80.9003H102.6L105.6 75.6003V83.3003H108V70.9003H105.6ZM19.8 87.8003H20.9V91.0003H21.7V87.8003H22.8V87.1003H19.9V87.8003H19.8ZM26.5 87.1003L25.1 91.0003H25.9L26.2 90.2003H27.7L28 91.0003H28.8L27.4 87.1003H26.5ZM26.4 89.5003L26.9 88.0003L27.4 89.5003H26.4ZM34 89.5003V90.1003C33.8 90.2003 33.5 90.3003 33.2 90.3003C33 90.3003 32.8 90.2003 32.6 90.1003C32.4 90.0003 32.3 89.8003 32.2 89.6003C32.1 89.5003 32 89.3003 32 89.0003C32 88.8003 32 88.6003 32.1 88.5003C32.2 88.3003 32.2 88.2003 32.3 88.1003C32.4 88.0003 32.5 87.9003 32.7 87.9003C32.8 87.8003 33 87.8003 33.1 87.8003C33.5 87.8003 33.8 87.9003 34.1 88.2003L34.6 87.7003C34.4 87.5003 34.2 87.3003 33.9 87.2003C33.6 87.1003 33.4 87.0003 33.1 87.0003C32.8 87.0003 32.5 87.1003 32.3 87.2003C32.1 87.3003 31.9 87.4003 31.7 87.6003C31.5 87.8003 31.4 88.0003 31.3 88.2003C31.2 88.4003 31.2 88.7003 31.2 89.0003C31.2 89.3003 31.2 89.6003 31.3 89.8003C31.4 90.1003 31.5 90.3003 31.7 90.4003C31.9 90.6003 32.1 90.7003 32.3 90.8003C32.5 90.9003 32.8 90.9003 33.1 90.9003C33.4 90.9003 33.7 90.9003 33.9 90.8003C34.2 90.7003 34.4 90.6003 34.6 90.5003V88.8003H33V89.5003H34ZM38.7 87.1003H37.9V91.0003H40.4V90.3003H38.7V87.1003ZM43.4 91.0003H44.2V87.1003H43.4V91.0003ZM50 89.7003L48.3 87.1003H47.5V91.0003H48.3V88.4003L50 91.0003H50.8V87.1003H50V89.7003ZM54.7 89.4003H56.1V88.7003H54.7V87.8003H56.4V87.1003H54V91.0003H56.6V90.3003H54.8V89.4003H54.7ZM65.8 88.8003H64.2V87.1003H63.4V91.0003H64.2V89.5003H65.8V91.0003H66.6V87.1003H65.8V88.8003ZM70.6 89.4003H72V88.7003H70.6V87.8003H72.3V87.1003H69.9V91.0003H72.5V90.3003H70.7V89.4003H70.6ZM77.6 89.5003C77.8 89.4003 77.9 89.4003 78 89.3003C78.1 89.2003 78.2 89.1003 78.3 88.9003C78.4 88.7003 78.4 88.6003 78.4 88.4003C78.4 88.2003 78.4 88.0003 78.3 87.9003C78.2 87.7003 78.2 87.6003 78.1 87.5003C78 87.4003 77.9 87.3003 77.7 87.2003C77.5 87.1003 77.3 87.1003 77.1 87.1003H75.7V91.0003H76.4V89.7003H76.8L77.7 91.0003H78.6L77.6 89.5003ZM76.8 89.0003H76.3V87.8003H76.9C77.1 87.8003 77.3 87.9003 77.4 88.0003C77.5 88.1003 77.6 88.3003 77.6 88.4003C77.6 88.6003 77.5 88.7003 77.4 88.8003C77.3 88.9003 77.1 89.0003 76.8 89.0003ZM82.3 89.4003H83.7V88.7003H82.3V87.8003H84V87.1003H81.6V91.0003H84.2V90.3003H82.4V89.4003H82.3Z" fill="black"></path></svg>